<svg width="150" height="50" viewBox="0 0 150 50" fill="none" xmlns="http://www.w3.org/2000/svg">
<path d="M0.012207 23.829H14.0747V45.0225C14.0747 46.6794 12.7316 48.0225 11.0747 48.0225H3.01221C1.35535 48.0225 0.012207 46.6794 0.012207 45.0225V23.829Z" fill="#C50143"/>
<path d="M34.3872 23.829H46.8872V45.0225C46.8872 46.6794 45.5441 48.0225 43.8872 48.0225H37.3872C35.7304 48.0225 34.3872 46.6794 34.3872 45.0225V23.829Z" fill="#282828"/>
<path d="M10.6826 12.7956C11.8354 11.6055 13.7045 11.6055 14.8573 12.7956L20.9022 19.0354C22.0551 20.2255 22.0551 22.1549 20.9022 23.3449L10.2197 34.372L6.89545e-05 23.8227L10.6826 12.7956Z" fill="#C50143"/>
<path d="M16.1621 12.0546C15.0093 10.8645 15.0093 8.93514 16.1621 7.74512L21.5778 2.15471C22.7306 0.964688 24.5997 0.964685 25.7526 2.1547L46.7341 23.813L37.1436 33.7129L16.1621 12.0546Z" fill="#282828"/>
<path d="M31.2622 7.69992H39.1997C40.8566 7.69992 42.1997 9.04307 42.1997 10.6999V20.6031H31.2622V7.69992Z" fill="#282828"/>
<path d="M69.7285 29.4505C69.8125 29.4505 69.8725 29.4805 69.9085 29.5405C69.9565 29.6005 69.9685 29.6725 69.9445 29.7565L65.4445 42.5005C65.4085 42.6085 65.3545 42.6865 65.2825 42.7345C65.2105 42.7825 65.1145 42.8065 64.9945 42.8065H63.4645C63.2125 42.8065 63.0505 42.7105 62.9785 42.5185L58.5685 29.7745C58.5565 29.7505 58.5505 29.7145 58.5505 29.6665C58.5505 29.6065 58.5685 29.5585 58.6045 29.5225C58.6525 29.4745 58.7125 29.4505 58.7845 29.4505H60.4765C60.6445 29.4505 60.7465 29.5285 60.7825 29.6845L64.2925 40.0345C64.3285 40.1305 64.3645 40.1785 64.4005 40.1785C64.4485 40.1785 64.4965 40.1245 64.5445 40.0165L68.0365 29.6845C68.0845 29.5285 68.1925 29.4505 68.3605 29.4505H69.7285ZM73.9017 31.3585C73.9017 31.4905 73.8717 31.5865 73.8117 31.6465C73.7637 31.7065 73.6737 31.7365 73.5417 31.7365H72.2097C72.0897 31.7365 72.0057 31.7125 71.9577 31.6645C71.9097 31.6045 71.8857 31.5145 71.8857 31.3945V29.7565C71.8857 29.5525 71.9757 29.4505 72.1557 29.4505H73.6497C73.7217 29.4505 73.7817 29.4805 73.8297 29.5405C73.8777 29.5885 73.9017 29.6545 73.9017 29.7385V31.3585ZM73.8477 42.4645C73.8477 42.5965 73.8177 42.6865 73.7577 42.7345C73.7097 42.7825 73.6197 42.8065 73.4877 42.8065H72.2637C72.1437 42.8065 72.0597 42.7885 72.0117 42.7525C71.9637 42.7045 71.9397 42.6265 71.9397 42.5185V33.5365C71.9397 33.4405 71.9577 33.3745 71.9937 33.3385C72.0297 33.2905 72.0957 33.2665 72.1917 33.2665H73.6317C73.7757 33.2665 73.8477 33.3505 73.8477 33.5185V42.4645ZM78.313 42.4645C78.313 42.5965 78.283 42.6865 78.223 42.7345C78.175 42.7825 78.079 42.8065 77.935 42.8065H76.711C76.591 42.8065 76.507 42.7885 76.459 42.7525C76.411 42.7045 76.387 42.6265 76.387 42.5185L76.423 29.7205C76.423 29.5405 76.501 29.4505 76.657 29.4505H78.079C78.235 29.4505 78.313 29.5405 78.313 29.7205V42.4645ZM86.3058 41.7265C85.4298 42.5665 84.4038 42.9865 83.2278 42.9865C82.3038 42.9865 81.5718 42.7525 81.0318 42.2845C80.5038 41.8045 80.2398 41.1685 80.2398 40.3765C80.2398 39.4045 80.6598 38.6305 81.4998 38.0545C82.3518 37.4785 83.5578 37.1545 85.1178 37.0825L86.2878 36.9925C86.4798 36.9685 86.5758 36.8785 86.5758 36.7225V36.2725C86.5758 35.6845 86.3958 35.2225 86.0358 34.8865C85.6758 34.5385 85.1838 34.3645 84.5598 34.3645C83.5758 34.3645 82.7898 34.8085 82.2018 35.6965C82.1658 35.7685 82.1238 35.8165 82.0758 35.8405C82.0398 35.8525 81.9798 35.8465 81.8958 35.8225L80.6718 35.4625C80.5998 35.4385 80.5638 35.3905 80.5638 35.3185C80.5638 35.2705 80.5818 35.2045 80.6178 35.1205C80.9538 34.4725 81.4638 33.9745 82.1478 33.6265C82.8438 33.2665 83.6778 33.0865 84.6498 33.0865C85.9098 33.0865 86.8518 33.3565 87.4758 33.8965C88.0998 34.4365 88.4118 35.1865 88.4118 36.1465V42.5005C88.4118 42.6205 88.3878 42.7045 88.3398 42.7525C88.3038 42.7885 88.2378 42.8065 88.1418 42.8065H86.9358C86.7678 42.8065 86.6718 42.6865 86.6478 42.4465L86.6118 41.7625C86.5878 41.6665 86.5518 41.6185 86.5038 41.6185C86.4678 41.6185 86.4018 41.6545 86.3058 41.7265ZM86.5758 38.3245C86.5758 38.1325 86.4918 38.0425 86.3238 38.0545L85.3518 38.1265C84.3558 38.1865 83.5638 38.3905 82.9758 38.7385C82.3998 39.0745 82.1118 39.5425 82.1118 40.1425C82.1118 40.6105 82.2798 40.9825 82.6158 41.2585C82.9518 41.5225 83.4018 41.6545 83.9658 41.6545C84.6138 41.6545 85.2258 41.4325 85.8018 40.9885C86.3178 40.5685 86.5758 40.1485 86.5758 39.7285V38.3245ZM130.021 42.6265C130.021 42.6931 130.004 42.7398 129.971 42.7665C129.937 42.7931 129.881 42.8065 129.801 42.8065H128.951C128.837 42.8065 128.781 42.7531 128.781 42.6465V41.6565C128.781 41.6098 128.791 41.5765 128.811 41.5565C128.837 41.5298 128.867 41.5165 128.901 41.5165H129.901C129.981 41.5165 130.021 41.5598 130.021 41.6465V42.6265ZM132.308 36.4465C132.308 36.5198 132.291 36.5731 132.258 36.6065C132.231 36.6398 132.181 36.6565 132.108 36.6565H131.368C131.301 36.6565 131.254 36.6431 131.228 36.6165C131.201 36.5831 131.188 36.5331 131.188 36.4665V35.5565C131.188 35.4431 131.238 35.3865 131.338 35.3865H132.168C132.208 35.3865 132.241 35.4031 132.268 35.4365C132.294 35.4631 132.308 35.4998 132.308 35.5465V36.4465ZM132.278 42.6165C132.278 42.6898 132.261 42.7398 132.228 42.7665C132.201 42.7931 132.151 42.8065 132.078 42.8065H131.398C131.331 42.8065 131.284 42.7965 131.258 42.7765C131.231 42.7498 131.218 42.7065 131.218 42.6465V37.6565C131.218 37.6031 131.228 37.5665 131.248 37.5465C131.268 37.5198 131.304 37.5065 131.358 37.5065H132.158C132.238 37.5065 132.278 37.5531 132.278 37.6465V42.6165ZM133.848 42.8065C133.742 42.8065 133.688 42.7531 133.688 42.6465V37.6565C133.688 37.5565 133.732 37.5065 133.818 37.5065H134.588C134.668 37.5065 134.708 37.5498 134.708 37.6365V38.2665C134.708 38.3065 134.718 38.3298 134.738 38.3365C134.765 38.3431 134.792 38.3298 134.818 38.2965C135.065 38.0098 135.318 37.7898 135.578 37.6365C135.845 37.4831 136.105 37.4065 136.358 37.4065C136.592 37.4065 136.708 37.4531 136.708 37.5465V38.3265C136.708 38.4065 136.672 38.4398 136.598 38.4265C136.472 38.3931 136.295 38.3765 136.068 38.3765C135.882 38.3765 135.685 38.4298 135.478 38.5365C135.272 38.6365 135.098 38.7698 134.958 38.9365C134.818 39.1031 134.748 39.2731 134.748 39.4465V42.6365C134.748 42.7498 134.685 42.8065 134.558 42.8065H133.848Z" fill="black"/>
<path d="M94.2919 42.8065C94.1479 42.8065 94.0759 42.7345 94.0759 42.5905L94.1119 42.4285L98.7019 29.7385C98.7379 29.6305 98.7859 29.5585 98.8459 29.5225C98.9059 29.4745 98.9899 29.4505 99.0979 29.4505H100.916C101.144 29.4505 101.294 29.5525 101.366 29.7565L105.92 42.4465C105.932 42.4705 105.938 42.5125 105.938 42.5725C105.938 42.7285 105.872 42.8065 105.74 42.8065H104.03C103.874 42.8065 103.772 42.7345 103.724 42.5905L102.572 39.3865C102.548 39.3265 102.524 39.2845 102.5 39.2605C102.476 39.2365 102.428 39.2245 102.356 39.2245H97.3699C97.2619 39.2245 97.1899 39.2725 97.1539 39.3685L95.9839 42.6265C95.9479 42.7465 95.8459 42.8065 95.6779 42.8065H94.2919ZM101.798 37.5325C101.882 37.5325 101.93 37.5145 101.942 37.4785C101.966 37.4305 101.966 37.3645 101.942 37.2805L99.9979 31.8805C99.9619 31.7965 99.9199 31.7545 99.8719 31.7545C99.8239 31.7545 99.7819 31.8025 99.7459 31.8985L97.7479 37.2985L97.7299 37.4065C97.7299 37.4905 97.7839 37.5325 97.8919 37.5325H101.798ZM109.542 33.2665C109.746 33.2665 109.848 33.3625 109.848 33.5545V34.2565C109.848 34.3525 109.872 34.4005 109.92 34.4005C109.944 34.4005 109.998 34.3705 110.082 34.3105C110.442 33.9505 110.82 33.6565 111.216 33.4285C111.624 33.2005 112.164 33.0865 112.836 33.0865C113.58 33.0865 114.24 33.2665 114.816 33.6265C115.404 33.9865 115.866 34.5265 116.202 35.2465C116.538 35.9665 116.706 36.8545 116.706 37.9105C116.706 38.9905 116.538 39.9145 116.202 40.6825C115.866 41.4385 115.392 42.0145 114.78 42.4105C114.168 42.7945 113.46 42.9865 112.656 42.9865C111.684 42.9865 110.85 42.6865 110.154 42.0865C110.058 42.0025 109.986 41.9605 109.938 41.9605C109.878 41.9605 109.848 42.0385 109.848 42.1945V45.5245C109.848 45.6925 109.776 45.7765 109.632 45.7765H108.174C108.018 45.7765 107.94 45.6925 107.94 45.5245V33.5905C107.94 33.4705 107.964 33.3865 108.012 33.3385C108.072 33.2905 108.162 33.2665 108.282 33.2665H109.542ZM109.848 40.5925C110.196 40.9525 110.544 41.2285 110.892 41.4205C111.252 41.6005 111.642 41.6905 112.062 41.6905C112.89 41.6905 113.544 41.3725 114.024 40.7365C114.516 40.0885 114.762 39.1465 114.762 37.9105C114.762 36.7105 114.522 35.8225 114.042 35.2465C113.562 34.6705 112.932 34.3825 112.152 34.3825C111.72 34.3825 111.324 34.4785 110.964 34.6705C110.616 34.8505 110.34 35.0905 110.136 35.3905C109.944 35.6785 109.848 35.9665 109.848 36.2545V40.5925ZM120.352 33.2665C120.556 33.2665 120.658 33.3625 120.658 33.5545V34.2565C120.658 34.3525 120.682 34.4005 120.73 34.4005C120.754 34.4005 120.808 34.3705 120.892 34.3105C121.252 33.9505 121.63 33.6565 122.026 33.4285C122.434 33.2005 122.974 33.0865 123.646 33.0865C124.39 33.0865 125.05 33.2665 125.626 33.6265C126.214 33.9865 126.676 34.5265 127.012 35.2465C127.348 35.9665 127.516 36.8545 127.516 37.9105C127.516 38.9905 127.348 39.9145 127.012 40.6825C126.676 41.4385 126.202 42.0145 125.59 42.4105C124.978 42.7945 124.27 42.9865 123.466 42.9865C122.494 42.9865 121.66 42.6865 120.964 42.0865C120.868 42.0025 120.796 41.9605 120.748 41.9605C120.688 41.9605 120.658 42.0385 120.658 42.1945V45.5245C120.658 45.6925 120.586 45.7765 120.442 45.7765H118.984C118.828 45.7765 118.75 45.6925 118.75 45.5245V33.5905C118.75 33.4705 118.774 33.3865 118.822 33.3385C118.882 33.2905 118.972 33.2665 119.092 33.2665H120.352ZM120.658 40.5925C121.006 40.9525 121.354 41.2285 121.702 41.4205C122.062 41.6005 122.452 41.6905 122.872 41.6905C123.7 41.6905 124.354 41.3725 124.834 40.7365C125.326 40.0885 125.572 39.1465 125.572 37.9105C125.572 36.7105 125.332 35.8225 124.852 35.2465C124.372 34.6705 123.742 34.3825 122.962 34.3825C122.53 34.3825 122.134 34.4785 121.774 34.6705C121.426 34.8505 121.15 35.0905 120.946 35.3905C120.754 35.6785 120.658 35.9665 120.658 36.2545V40.5925Z" fill="#C50143"/>
</svg>
