<svg width="206" height="68" viewBox="0 0 206 68" fill="none" xmlns="http://www.w3.org/2000/svg">
<g filter="url(#filter0_d)">
<path d="M2.0166 32.4542H21.1416V63.3897C21.1416 63.942 20.6939 64.3897 20.1416 64.3897H3.0166C2.46432 64.3897 2.0166 63.942 2.0166 63.3897V32.4542Z" fill="#3C3C3C"/>
<path d="M48.7666 32.4542H65.7666V63.3897C65.7666 63.942 65.3189 64.3897 64.7666 64.3897H49.7666C49.2143 64.3897 48.7666 63.942 48.7666 63.3897V32.4542Z" fill="#3C3C3C"/>
<path d="M18.6608 15.7537C19.0509 15.3628 19.6835 15.3628 20.0736 15.7537L32.5595 28.2632C32.9496 28.6541 32.9496 29.2879 32.5595 29.6788L15.8989 46.371L2.00014 32.4459L18.6608 15.7537Z" fill="#3C3C3C"/>
<path d="M21.848 14.7755C21.4579 14.3846 21.4579 13.7509 21.848 13.36L33.4782 1.70771C33.8684 1.31682 34.5009 1.31682 34.8911 1.70771L65.5583 32.4331L52.5153 45.501L21.848 14.7755Z" fill="#3C3C3C"/>
<path d="M44.5166 11.1639H58.3916C58.9439 11.1639 59.3916 11.6117 59.3916 12.1639V28.1962H44.5166V11.1639Z" fill="#3C3C3C"/>
<path d="M93.865 39.2245C93.9583 39.2245 94.025 39.2578 94.065 39.3245C94.1183 39.3911 94.1317 39.4711 94.105 39.5645L89.105 53.7245C89.065 53.8445 89.005 53.9311 88.925 53.9845C88.845 54.0378 88.7383 54.0645 88.605 54.0645H86.905C86.625 54.0645 86.445 53.9578 86.365 53.7445L81.465 39.5845C81.4517 39.5578 81.445 39.5178 81.445 39.4645C81.445 39.3978 81.465 39.3445 81.505 39.3045C81.5583 39.2511 81.625 39.2245 81.705 39.2245H83.585C83.7717 39.2245 83.885 39.3111 83.925 39.4845L87.825 50.9845C87.865 51.0911 87.905 51.1445 87.945 51.1445C87.9983 51.1445 88.0517 51.0845 88.105 50.9645L91.985 39.4845C92.0383 39.3111 92.1583 39.2245 92.345 39.2245H93.865ZM98.5019 41.3445C98.5019 41.4911 98.4685 41.5978 98.4019 41.6645C98.3485 41.7311 98.2485 41.7645 98.1019 41.7645H96.6219C96.4885 41.7645 96.3952 41.7378 96.3419 41.6845C96.2885 41.6178 96.2619 41.5178 96.2619 41.3845V39.5645C96.2619 39.3378 96.3619 39.2245 96.5619 39.2245H98.2219C98.3019 39.2245 98.3685 39.2578 98.4219 39.3245C98.4752 39.3778 98.5019 39.4511 98.5019 39.5445V41.3445ZM98.4419 53.6845C98.4419 53.8311 98.4085 53.9311 98.3419 53.9845C98.2885 54.0378 98.1885 54.0645 98.0419 54.0645H96.6819C96.5485 54.0645 96.4552 54.0445 96.4019 54.0045C96.3485 53.9511 96.3219 53.8645 96.3219 53.7445V43.7645C96.3219 43.6578 96.3419 43.5845 96.3819 43.5445C96.4219 43.4911 96.4952 43.4645 96.6019 43.4645H98.2019C98.3619 43.4645 98.4419 43.5578 98.4419 43.7445V53.6845ZM103.403 53.6845C103.403 53.8311 103.37 53.9311 103.303 53.9845C103.25 54.0378 103.143 54.0645 102.983 54.0645H101.623C101.49 54.0645 101.397 54.0445 101.343 54.0045C101.29 53.9511 101.263 53.8645 101.263 53.7445L101.303 39.5245C101.303 39.3245 101.39 39.2245 101.563 39.2245H103.143C103.317 39.2245 103.403 39.3245 103.403 39.5245V53.6845ZM112.284 52.8645C111.311 53.7978 110.171 54.2645 108.864 54.2645C107.838 54.2645 107.024 54.0045 106.424 53.4845C105.838 52.9511 105.544 52.2445 105.544 51.3645C105.544 50.2845 106.011 49.4245 106.944 48.7845C107.891 48.1445 109.231 47.7845 110.964 47.7045L112.264 47.6045C112.478 47.5778 112.584 47.4778 112.584 47.3045V46.8045C112.584 46.1511 112.384 45.6378 111.984 45.2645C111.584 44.8778 111.038 44.6845 110.344 44.6845C109.251 44.6845 108.378 45.1778 107.724 46.1645C107.684 46.2445 107.638 46.2978 107.584 46.3245C107.544 46.3378 107.478 46.3311 107.384 46.3045L106.024 45.9045C105.944 45.8778 105.904 45.8245 105.904 45.7445C105.904 45.6911 105.924 45.6178 105.964 45.5245C106.338 44.8045 106.904 44.2511 107.664 43.8645C108.438 43.4645 109.364 43.2645 110.444 43.2645C111.844 43.2645 112.891 43.5645 113.584 44.1645C114.278 44.7645 114.624 45.5978 114.624 46.6645V53.7245C114.624 53.8578 114.598 53.9511 114.544 54.0045C114.504 54.0445 114.431 54.0645 114.324 54.0645H112.984C112.798 54.0645 112.691 53.9311 112.664 53.6645L112.624 52.9045C112.598 52.7978 112.558 52.7445 112.504 52.7445C112.464 52.7445 112.391 52.7845 112.284 52.8645ZM112.584 49.0845C112.584 48.8711 112.491 48.7711 112.304 48.7845L111.224 48.8645C110.118 48.9311 109.238 49.1578 108.584 49.5445C107.944 49.9178 107.624 50.4378 107.624 51.1045C107.624 51.6245 107.811 52.0378 108.184 52.3445C108.558 52.6378 109.058 52.7845 109.684 52.7845C110.404 52.7845 111.084 52.5378 111.724 52.0445C112.298 51.5778 112.584 51.1111 112.584 50.6445V49.0845ZM121.158 54.0645C120.998 54.0645 120.918 53.9845 120.918 53.8245L120.958 53.6445L126.058 39.5445C126.098 39.4245 126.151 39.3445 126.218 39.3045C126.284 39.2511 126.378 39.2245 126.498 39.2245H128.518C128.771 39.2245 128.938 39.3378 129.018 39.5645L134.078 53.6645C134.091 53.6911 134.098 53.7378 134.098 53.8045C134.098 53.9778 134.024 54.0645 133.878 54.0645H131.978C131.804 54.0645 131.691 53.9845 131.638 53.8245L130.358 50.2645C130.331 50.1978 130.304 50.1511 130.278 50.1245C130.251 50.0978 130.198 50.0845 130.118 50.0845H124.578C124.458 50.0845 124.378 50.1378 124.338 50.2445L123.038 53.8645C122.998 53.9978 122.884 54.0645 122.698 54.0645H121.158ZM129.498 48.2045C129.591 48.2045 129.644 48.1845 129.658 48.1445C129.684 48.0911 129.684 48.0178 129.658 47.9245L127.498 41.9245C127.458 41.8311 127.411 41.7845 127.358 41.7845C127.304 41.7845 127.258 41.8378 127.218 41.9445L124.998 47.9445L124.978 48.0645C124.978 48.1578 125.038 48.2045 125.158 48.2045H129.498ZM138.102 43.4645C138.329 43.4645 138.442 43.5711 138.442 43.7845V44.5645C138.442 44.6711 138.469 44.7245 138.522 44.7245C138.549 44.7245 138.609 44.6911 138.702 44.6245C139.102 44.2245 139.522 43.8978 139.962 43.6445C140.415 43.3911 141.015 43.2645 141.762 43.2645C142.589 43.2645 143.322 43.4645 143.962 43.8645C144.615 44.2645 145.129 44.8645 145.502 45.6645C145.875 46.4645 146.062 47.4511 146.062 48.6245C146.062 49.8245 145.875 50.8511 145.502 51.7045C145.129 52.5445 144.602 53.1845 143.922 53.6245C143.242 54.0511 142.455 54.2645 141.562 54.2645C140.482 54.2645 139.555 53.9311 138.782 53.2645C138.675 53.1711 138.595 53.1245 138.542 53.1245C138.475 53.1245 138.442 53.2111 138.442 53.3845V57.0845C138.442 57.2711 138.362 57.3645 138.202 57.3645H136.582C136.409 57.3645 136.322 57.2711 136.322 57.0845V43.8245C136.322 43.6911 136.349 43.5978 136.402 43.5445C136.469 43.4911 136.569 43.4645 136.702 43.4645H138.102ZM138.442 51.6045C138.829 52.0045 139.215 52.3111 139.602 52.5245C140.002 52.7245 140.435 52.8245 140.902 52.8245C141.822 52.8245 142.549 52.4711 143.082 51.7645C143.629 51.0445 143.902 49.9978 143.902 48.6245C143.902 47.2911 143.635 46.3045 143.102 45.6645C142.569 45.0245 141.869 44.7045 141.002 44.7045C140.522 44.7045 140.082 44.8111 139.682 45.0245C139.295 45.2245 138.989 45.4911 138.762 45.8245C138.549 46.1445 138.442 46.4645 138.442 46.7845V51.6045ZM150.114 43.4645C150.34 43.4645 150.454 43.5711 150.454 43.7845V44.5645C150.454 44.6711 150.48 44.7245 150.534 44.7245C150.56 44.7245 150.62 44.6911 150.714 44.6245C151.114 44.2245 151.534 43.8978 151.974 43.6445C152.427 43.3911 153.027 43.2645 153.774 43.2645C154.6 43.2645 155.334 43.4645 155.974 43.8645C156.627 44.2645 157.14 44.8645 157.514 45.6645C157.887 46.4645 158.074 47.4511 158.074 48.6245C158.074 49.8245 157.887 50.8511 157.514 51.7045C157.14 52.5445 156.614 53.1845 155.934 53.6245C155.254 54.0511 154.467 54.2645 153.574 54.2645C152.494 54.2645 151.567 53.9311 150.794 53.2645C150.687 53.1711 150.607 53.1245 150.554 53.1245C150.487 53.1245 150.454 53.2111 150.454 53.3845V57.0845C150.454 57.2711 150.374 57.3645 150.214 57.3645H148.594C148.42 57.3645 148.334 57.2711 148.334 57.0845V43.8245C148.334 43.6911 148.36 43.5978 148.414 43.5445C148.48 43.4911 148.58 43.4645 148.714 43.4645H150.114ZM150.454 51.6045C150.84 52.0045 151.227 52.3111 151.614 52.5245C152.014 52.7245 152.447 52.8245 152.914 52.8245C153.834 52.8245 154.56 52.4711 155.094 51.7645C155.64 51.0445 155.914 49.9978 155.914 48.6245C155.914 47.2911 155.647 46.3045 155.114 45.6645C154.58 45.0245 153.88 44.7045 153.014 44.7045C152.534 44.7045 152.094 44.8111 151.694 45.0245C151.307 45.2245 151 45.4911 150.774 45.8245C150.56 46.1445 150.454 46.4645 150.454 46.7845V51.6045ZM160.665 53.8845C160.665 53.9511 160.649 53.9978 160.615 54.0245C160.582 54.0511 160.525 54.0645 160.445 54.0645H159.595C159.482 54.0645 159.425 54.0111 159.425 53.9045V52.9145C159.425 52.8678 159.435 52.8345 159.455 52.8145C159.482 52.7878 159.512 52.7745 159.545 52.7745H160.545C160.625 52.7745 160.665 52.8178 160.665 52.9045V53.8845ZM162.952 47.7045C162.952 47.7778 162.935 47.8311 162.902 47.8645C162.875 47.8978 162.825 47.9145 162.752 47.9145H162.012C161.945 47.9145 161.899 47.9011 161.872 47.8745C161.845 47.8411 161.832 47.7911 161.832 47.7245V46.8145C161.832 46.7011 161.882 46.6445 161.982 46.6445H162.812C162.852 46.6445 162.885 46.6611 162.912 46.6945C162.939 46.7211 162.952 46.7578 162.952 46.8045V47.7045ZM162.922 53.8745C162.922 53.9478 162.905 53.9978 162.872 54.0245C162.845 54.0511 162.795 54.0645 162.722 54.0645H162.042C161.975 54.0645 161.929 54.0545 161.902 54.0345C161.875 54.0078 161.862 53.9645 161.862 53.9045V48.9145C161.862 48.8611 161.872 48.8245 161.892 48.8045C161.912 48.7778 161.949 48.7645 162.002 48.7645H162.802C162.882 48.7645 162.922 48.8111 162.922 48.9045V53.8745ZM164.493 54.0645C164.386 54.0645 164.333 54.0111 164.333 53.9045V48.9145C164.333 48.8145 164.376 48.7645 164.463 48.7645H165.233C165.313 48.7645 165.353 48.8078 165.353 48.8945V49.5245C165.353 49.5645 165.363 49.5878 165.383 49.5945C165.409 49.6011 165.436 49.5878 165.463 49.5545C165.709 49.2678 165.963 49.0478 166.223 48.8945C166.489 48.7411 166.749 48.6645 167.003 48.6645C167.236 48.6645 167.353 48.7111 167.353 48.8045V49.5845C167.353 49.6645 167.316 49.6978 167.243 49.6845C167.116 49.6511 166.939 49.6345 166.713 49.6345C166.526 49.6345 166.329 49.6878 166.123 49.7945C165.916 49.8945 165.743 50.0278 165.603 50.1945C165.463 50.3611 165.393 50.5311 165.393 50.7045V53.8945C165.393 54.0078 165.329 54.0645 165.203 54.0645H164.493Z" fill="#3C3C3C"/>
</g>
<defs>
<filter id="filter0_d" x="0" y="0" width="208" height="70" filterUnits="userSpaceOnUse" color-interpolation-filters="sRGB">
<feFlood flood-opacity="0" result="BackgroundImageFix"/>
<feColorMatrix in="SourceAlpha" type="matrix" values="0 0 0 0 0 0 0 0 0 0 0 0 0 0 0 0 0 0 127 0"/>
<feOffset dy="1"/>
<feGaussianBlur stdDeviation="1"/>
<feColorMatrix type="matrix" values="0 0 0 0 0 0 0 0 0 0 0 0 0 0 0 0 0 0 0.25 0"/>
<feBlend mode="normal" in2="BackgroundImageFix" result="effect1_dropShadow"/>
<feBlend mode="normal" in="SourceGraphic" in2="effect1_dropShadow" result="shape"/>
</filter>
</defs>
</svg>
