<svg width="16" height="16" viewBox="0 0 16 16" fill="none" xmlns="http://www.w3.org/2000/svg">
<path fill-rule="evenodd" clip-rule="evenodd" d="M3.2 5H2.13333V6H3.2V5ZM7.46667 4H6.4V5H7.46667V4ZM9.6 4H8.53333V5H9.6V4ZM11.7333 4H10.6667V5H11.7333V4ZM7.46667 2H6.4V3H7.46667V2ZM9.6 2H8.53333V3H9.6V2ZM11.7333 2H10.6667V3H11.7333V2ZM7.46667 8H6.4V9H7.46667V8ZM9.6 8H8.53333V9H9.6V8ZM11.7333 8H10.6667V9H11.7333V8ZM7.46667 10H6.4V11H7.46667V10ZM11.7333 10H10.6667V11H11.7333V10ZM7.46667 12H6.4V13H7.46667V12ZM11.7333 12H10.6667V13H11.7333V12ZM7.46667 6H6.4V7H7.46667V6ZM9.6 6H8.53333V7H9.6V6ZM11.7333 6H10.6667V7H11.7333V6ZM3.2 7H2.13333V8H3.2V7ZM3.2 9H2.13333V10H3.2V9ZM3.2 11H2.13333V12H3.2V11ZM3.2 13H2.13333V14H3.2V13ZM9.6 10H8.53333V11H9.6V10ZM14.9333 7H13.8667V1C13.8667 0.44725 13.3896 0 12.8 0H5.33333C4.74373 0 4.26667 0.44725 4.26667 1V3H1.06667C0.477067 3 0 3.44725 0 4V15C0 15.5527 0.477067 16 1.06667 16H14.9333C15.5229 16 16 15.5527 16 15V8C16 7.44725 15.5229 7 14.9333 7ZM4.26667 15H1.06667V4H4.26667V15ZM12.8 15H9.6V12H8.53333V15H5.33333V1H12.8V15ZM14.9333 15H13.8667V14H14.9333V15ZM14.9333 13H13.8667V12H14.9333V13ZM14.9333 11H13.8667V10H14.9333V11ZM14.9333 9H13.8667V8H14.9333V9Z" fill="#ADADAD"/>
</svg>
