<svg width="6" height="6" viewBox="0 0 6 6" fill="none" xmlns="http://www.w3.org/2000/svg">
<path d="M2.97815 3.23297C2.98436 3.23297 2.99058 3.23297 2.99803 3.23297C3.00052 3.23297 3.003 3.23297 3.00549 3.23297C3.00921 3.23297 3.01418 3.23297 3.01791 3.23297C3.38196 3.22676 3.67643 3.09878 3.89387 2.85401C4.37223 2.31477 4.29271 1.39035 4.28401 1.30213C4.25295 0.639884 3.93984 0.323048 3.6814 0.175192C3.48882 0.0646097 3.26392 0.00496997 3.01294 0H3.00424C3.003 0 3.00052 0 2.99927 0H2.99182C2.8539 0 2.58304 0.0223649 2.32336 0.170222C2.06243 0.318078 1.74436 0.634914 1.71329 1.30213C1.7046 1.39035 1.62508 2.31477 2.10344 2.85401C2.31963 3.09878 2.6141 3.22676 2.97815 3.23297ZM2.04504 1.3332C2.04504 1.32947 2.04628 1.32574 2.04628 1.32326C2.08728 0.432388 2.71971 0.336716 2.99058 0.336716H2.99555C2.99803 0.336716 3.00176 0.336716 3.00549 0.336716C3.34096 0.344171 3.91126 0.480845 3.94978 1.32326C3.94978 1.32698 3.94978 1.33071 3.95102 1.3332C3.95227 1.34189 4.03924 2.18679 3.64413 2.6316C3.48757 2.80804 3.27883 2.89501 3.00424 2.89749C3.00176 2.89749 3.00052 2.89749 2.99803 2.89749C2.99555 2.89749 2.9943 2.89749 2.99182 2.89749C2.71847 2.89501 2.50849 2.80804 2.35318 2.6316C1.95931 2.18927 2.0438 1.34065 2.04504 1.3332Z" fill="#A8A8A8"/>
<path d="M5.5515 4.76619C5.5515 4.76495 5.5515 4.7637 5.5515 4.76246C5.5515 4.75252 5.55026 4.74258 5.55026 4.7314C5.5428 4.48539 5.52665 3.91011 4.98741 3.72622C4.98368 3.72498 4.97871 3.72373 4.97498 3.72249C4.41462 3.5796 3.94868 3.25655 3.94371 3.25283C3.86792 3.1994 3.76355 3.21804 3.71013 3.29383C3.6567 3.36962 3.67534 3.47399 3.75113 3.52742C3.77225 3.54233 4.26676 3.8865 4.88552 4.04554C5.17503 4.14867 5.20733 4.45805 5.21603 4.74134C5.21603 4.75252 5.21603 4.76246 5.21727 4.7724C5.21851 4.88423 5.21106 5.05693 5.19118 5.15633C4.98989 5.27064 4.20091 5.66576 3.00066 5.66576C1.80538 5.66576 1.01143 5.2694 0.808903 5.15509C0.789024 5.05569 0.780326 4.88298 0.782811 4.77116C0.782811 4.76122 0.784054 4.75128 0.784054 4.7401C0.792751 4.45681 0.825056 4.14743 1.11456 4.0443C1.73332 3.88526 2.22783 3.53984 2.24895 3.52618C2.32475 3.47275 2.34338 3.36838 2.28996 3.29259C2.23653 3.21679 2.13216 3.19816 2.05637 3.25158C2.0514 3.25531 1.58795 3.57836 1.0251 3.72125C1.02013 3.72249 1.0164 3.72373 1.01267 3.72498C0.47343 3.91011 0.457278 4.48539 0.449823 4.73016C0.449823 4.74134 0.449823 4.75128 0.44858 4.76122C0.44858 4.76246 0.44858 4.76371 0.44858 4.76495C0.447338 4.82956 0.446095 5.1613 0.511948 5.3278C0.524372 5.3601 0.546737 5.38744 0.576557 5.40608C0.613832 5.43093 1.50718 5.99999 3.0019 5.99999C4.49662 5.99999 5.38998 5.42968 5.42725 5.40608C5.45583 5.38744 5.47944 5.3601 5.49186 5.3278C5.55399 5.16255 5.55274 4.8308 5.5515 4.76619Z" fill="#A8A8A8"/>
</svg>
