<svg width="16" height="16" viewBox="0 0 16 16" fill="none" xmlns="http://www.w3.org/2000/svg">
<path d="M14.4428 6.20253V6.17722V2.35443C14.4428 0.632912 13.6214 0 12.8513 0H3.09733C2.32727 0 1.50588 0.607595 1.50588 2.35443V6.17722V6.20253C0.735829 6.32911 0 7.08861 0 8.83544V11.8228C0 12.3291 0.273797 12.7342 0.616043 12.7342H0.82139V15.0886C0.82139 15.5949 1.09519 16 1.43743 16H2.01925C2.3615 16 2.63529 15.5949 2.63529 15.0886V12.7089H13.3647V15.0886C13.3647 15.5949 13.6385 16 13.9807 16H14.5626C14.9048 16 15.1786 15.5949 15.1786 15.0886V12.7089H15.384C15.7262 12.7089 16 12.3038 16 11.7975V8.83544C15.9487 7.08861 15.2128 6.32911 14.4428 6.20253ZM2.0877 2.35443H2.12193C2.12193 1.16456 2.65241 0.911393 3.09733 0.911393H12.8513C13.2963 0.911393 13.8267 1.16456 13.8267 2.35443V6.17722H13.3647V4C13.3647 3.49367 13.0909 3.08861 12.7487 3.08861H8.98396C8.64171 3.08861 8.36792 3.49367 8.36792 4V6.17722H7.6492V4C7.6492 3.49367 7.3754 3.08861 7.03315 3.08861H3.26845C2.9262 3.08861 2.65241 3.49367 2.65241 4V6.17722H2.0877V2.35443ZM12.7487 4V6.17722H8.98396V4H12.7487ZM7.06738 4V6.17722H3.30267V4H7.06738ZM2.00214 15.0886H1.42032V12.7089H2.00214V15.0886ZM14.5283 15.0886H13.9465V12.7089H14.5283V15.0886ZM15.3326 11.8228H14.5283H13.9465H2.00214H1.42032H0.59893V10.481H15.3326V11.8228ZM15.3326 9.56962H0.59893V8.83544C0.59893 7.31646 1.35187 7.08861 1.77968 7.08861H2.10481H3.28556H7.05027H8.98396H12.7487H13.8267H14.1519C14.5968 7.08861 15.3326 7.31646 15.3326 8.83544V9.56962Z" fill="#ADADAD"/>
</svg>
