<svg width="15" height="15" viewBox="0 0 15 15" fill="none" xmlns="http://www.w3.org/2000/svg">
<g clip-path="url(#clip0)">
<path d="M10.0089 10.6514C9.85868 10.502 9.65061 10.4199 9.42173 10.4199C9.18073 10.4199 8.94852 10.5138 8.78444 10.6779L7.74673 11.7159L7.46629 11.5603C6.84942 11.2182 6.00406 10.7491 5.11168 9.85542C4.21565 8.96046 3.74621 8.11326 3.40297 7.49382L3.24969 7.22122L4.28919 6.18184C4.63302 5.83681 4.64501 5.28775 4.31515 4.95741L2.39457 3.03712C2.24531 2.88782 2.03694 2.80542 1.80845 2.80542C1.56771 2.80542 1.33562 2.89977 1.17103 3.06402L0.699393 3.53835L0.655665 3.61125C0.47998 3.83644 0.336246 4.08948 0.228874 4.36529C0.128954 4.62801 0.0668518 4.8777 0.0379422 5.12821C-0.209567 7.18627 0.739267 9.07563 3.31402 11.6498C6.36546 14.7007 8.91541 14.9381 9.6244 14.9381C9.74608 14.9381 9.81936 14.9314 9.83966 14.9293C10.1017 14.8974 10.3522 14.8344 10.605 14.7367C10.8779 14.6305 11.1304 14.4878 11.3552 14.3121L11.4622 14.2274L11.9038 13.7944C12.2472 13.4508 12.2582 12.9025 11.9285 12.5725L10.0089 10.6514Z" fill="#454545"/>
<path d="M7.97595 7.09966C7.55802 6.68199 7.03311 6.38146 6.4595 6.23143L6.19563 6.16162L6.11999 6.42215C6.0916 6.51873 6.05815 6.61017 6.0202 6.69232L5.8772 6.99696L6.20484 7.08159C6.63831 7.19114 7.03332 7.41437 7.34696 7.72865C7.64672 8.02777 7.86583 8.40299 7.98053 8.81291L8.03582 9.01039L8.44831 9.03382C8.48998 9.0387 8.53165 9.04337 8.57153 9.04697L8.95934 9.0835L8.86932 8.70438C8.72481 8.09454 8.41623 7.53969 7.97595 7.09966Z" fill="#454545"/>
<path d="M9.32372 5.75108C8.54783 4.97506 7.55625 4.4687 6.4576 4.2871L6.07544 4.2229L6.13549 4.60494C6.15313 4.71822 6.16868 4.83099 6.18166 4.94491L6.20607 5.14591L6.40835 5.18591C7.28403 5.34768 8.07461 5.7611 8.69443 6.38054C9.40604 7.0924 9.84096 8.0005 9.95099 9.00814L9.97442 9.22139L10.2977 9.26794C10.3496 9.27205 10.4024 9.27154 10.4767 9.27205L10.8661 9.28542L10.8352 8.96754C10.714 7.73077 10.1909 6.61884 9.32372 5.75108Z" fill="#454545"/>
<path d="M10.7878 4.2872C9.51478 3.01441 7.8191 2.25625 6.01304 2.15299L5.66223 2.1311L5.72074 2.47661C5.7386 2.58912 5.76048 2.7042 5.78361 2.82408L5.82631 3.03368L6.03836 3.04679C7.59686 3.15352 9.06011 3.81745 10.159 4.9161C11.2402 5.99741 11.9009 7.44404 12.0192 8.9876L12.0395 9.26226L12.3139 9.24607C12.379 9.24273 12.443 9.23708 12.5367 9.22885L12.9294 9.19797L12.9077 8.91971C12.7735 7.16514 12.0207 5.51995 10.7878 4.2872Z" fill="#454545"/>
<path d="M14.9773 8.72282C14.7978 6.49549 13.8306 4.39952 12.2533 2.82196C10.5703 1.13886 8.33002 0.163003 5.94675 0.0733614L5.67659 0.0620117L5.65603 0.333591C5.65128 0.409441 5.64806 0.484435 5.64524 0.559771L5.62866 0.954055L5.90885 0.964077C8.07004 1.04408 10.0997 1.9276 11.6238 3.45167C13.0514 4.8793 13.9273 6.77752 14.0909 8.79584L14.1138 9.07924L14.399 9.05149C14.4957 9.04121 14.5937 9.03376 14.6924 9.02605L15 9.00236L14.9773 8.72282Z" fill="#454545"/>
</g>
<defs>
<clipPath id="clip0">
<rect width="15" height="15" fill="white"/>
</clipPath>
</defs>
</svg>
