<svg width="30" height="30" viewBox="0 0 30 30" fill="none" xmlns="http://www.w3.org/2000/svg">
<g clip-path="url(#clip0)">
<path d="M9.67731 26.6404C9.67731 27.4008 9.05519 28.0229 8.29482 28.0229H2.5805C1.82012 28.0229 1.198 27.4008 1.198 26.6404V20.3731C1.198 19.6127 1.82012 18.9906 2.5805 18.9906H8.29482C9.05519 18.9906 9.67731 19.6127 9.67731 20.3731V26.6404Z" fill="#424242"/>
<path d="M19.8387 26.6404C19.8387 27.4008 19.2166 28.0229 18.4562 28.0229H12.7419C11.9815 28.0229 11.3594 27.4008 11.3594 26.6404V17.0551C11.3594 16.2947 11.9815 15.6726 12.7419 15.6726H18.4562C19.2166 15.6726 19.8387 16.2947 19.8387 17.0551V26.6404Z" fill="#424242"/>
<path d="M30.0001 26.6404C30.0001 27.4008 29.3779 28.0229 28.6176 28.0229H22.9032C22.1429 28.0229 21.5208 27.4008 21.5208 26.6404V13.3685C21.5208 12.6081 22.1429 11.986 22.9032 11.986H28.6176C29.3779 11.986 30.0001 12.6081 30.0001 13.3685V26.6404Z" fill="#424242"/>
<path d="M28.8041 2.00284L22.5944 3.51363C22.1017 3.6329 21.9919 4.02377 22.3503 4.38221L23.6754 5.67632C23.7866 5.80314 23.6547 5.9718 23.55 6.04323C22.7156 6.61282 21.3914 7.44859 19.5611 8.40352C9.59651 13.6024 1.38236 13.2835 1.25886 13.2778C0.599496 13.2444 0.0357142 13.7523 0.00161265 14.4128C-0.0323968 15.0736 0.475625 15.637 1.13646 15.671C1.18503 15.6735 1.38254 15.6825 1.71462 15.6825C3.84431 15.6825 11.4945 15.315 20.6696 10.5281C22.8406 9.39551 24.3453 8.41864 25.2239 7.8002C25.3481 7.71274 25.5646 7.56195 25.7644 7.76536L27.2138 9.21459C27.5722 9.57302 27.9611 9.4627 28.0784 8.96952L29.4871 2.68275C29.6042 2.18948 29.2967 1.88358 28.8041 2.00284Z" fill="#C50143"/>
</g>
<defs>
<clipPath id="clip0">
<rect width="30" height="30" fill="white"/>
</clipPath>
</defs>
</svg>
