<svg width="19" height="19" viewBox="0 0 19 19" fill="none" xmlns="http://www.w3.org/2000/svg">
<g clip-path="url(#clip0)">
<path d="M17.4008 7.96387C16.9769 7.96387 16.6334 8.3075 16.6334 8.73136V9.50439C16.6322 11.5208 15.8459 13.4162 14.4192 14.8412C12.9936 16.2651 11.0991 17.0492 9.0843 17.0492C9.08282 17.0492 9.08133 17.0492 9.07985 17.0492C4.91722 17.0468 1.53262 13.6584 1.53499 9.4957C1.53614 7.47929 2.32249 5.58397 3.7492 4.15889C5.17483 2.73493 7.0693 1.95089 9.08408 1.95089C9.08556 1.95089 9.08705 1.95089 9.08853 1.95089C10.1525 1.95148 11.1848 2.17139 12.1567 2.60442C12.544 2.77698 12.9976 2.6029 13.1702 2.21574C13.3426 1.82857 13.1687 1.37487 12.7815 1.20232C11.6119 0.681188 10.3698 0.416599 9.08939 0.415894C9.08746 0.415894 9.08597 0.415894 9.08404 0.415894C6.65972 0.415894 4.3798 1.35951 2.66438 3.07292C0.947626 4.78767 0.00141165 7.06838 1.49644e-06 9.49489C-0.00137155 11.9213 0.942171 14.2031 2.657 15.9199C4.37182 17.6366 6.65249 18.5828 9.07896 18.5842C9.08085 18.5842 9.08237 18.5842 9.0843 18.5842C11.5086 18.5842 13.7885 17.6407 15.504 15.9272C17.2207 14.2124 18.1669 11.9317 18.1683 9.50483V8.7314C18.1683 8.3075 17.8247 7.96387 17.4008 7.96387Z" fill="#1FC056"/>
<path d="M18.7752 1.47709C18.4754 1.1774 17.9895 1.1774 17.6897 1.47709L9.08412 10.0827L7.13183 8.13039C6.83213 7.83066 6.34615 7.83066 6.04645 8.13039C5.74672 8.43013 5.74672 8.91607 6.04645 9.21581L8.54147 11.7108C8.69131 11.8607 8.88777 11.9356 9.08419 11.9356C9.28061 11.9356 9.47703 11.8607 9.62692 11.7108L18.7752 2.5625C19.0749 2.26277 19.0749 1.77682 18.7752 1.47709Z" fill="#1FC056"/>
</g>
<defs>
<clipPath id="clip0">
<rect width="19" height="19" fill="white"/>
</clipPath>
</defs>
</svg>
