<svg width="30" height="30" viewBox="0 0 30 30" fill="none" xmlns="http://www.w3.org/2000/svg">
<path d="M28.8026 9.16101C27.2209 5.47352 24.5331 2.79171 20.8149 1.20587C18.9564 0.413276 17.0094 0.00842285 14.9753 0.00842285C12.9416 0.00842285 11.009 0.409452 9.1526 1.20587C5.4651 2.78749 2.76544 5.46759 1.18098 9.16101C0.38701 11.0114 0 12.95 0 14.9837C0 17.0178 0.38701 18.9725 1.18098 20.8233C2.76544 24.5167 5.46544 27.2129 9.1526 28.7949C11.0093 29.5913 12.9416 29.9919 14.9753 29.9919C17.0091 29.9919 18.9564 29.5871 20.8146 28.7949C24.5328 27.209 27.2206 24.5104 28.8026 20.8233C29.599 18.9665 30 17.0178 30 14.9837C30 12.95 29.5993 11.0177 28.8026 9.16101ZM26.408 21.6106C25.2305 23.63 23.6174 25.232 21.5857 26.4164C19.5664 27.5939 17.3538 28.1878 14.9757 28.1878C13.1879 28.1878 11.4821 27.8435 9.85804 27.138C8.23407 26.4329 6.83191 25.506 5.65897 24.3334C4.48603 23.1604 3.55245 21.7446 2.85436 20.1178C2.15833 18.497 1.82103 16.7718 1.82103 14.9838C1.82103 12.6053 2.40539 10.404 3.57627 8.39018C4.75132 6.36906 6.3648 4.76533 8.38211 3.5843C10.3991 2.40332 12.5973 1.81264 14.9753 1.81264C17.3538 1.81264 19.566 2.4068 21.5854 3.5843C23.6171 4.76881 25.2267 6.37249 26.4077 8.39013C27.5887 10.4074 28.179 12.6053 28.179 14.9837C28.179 17.3622 27.5926 19.5786 26.408 21.6106Z" fill="#424242"/>
<path d="M15.9268 14.8524V6.35585C15.9268 5.84741 15.4838 5.43732 14.9754 5.43732C14.4998 5.43732 14.0732 5.84741 14.0732 6.35585V14.9835C14.0732 15 14.1061 15.0658 14.1061 15.1148C14.0732 15.4101 14.1555 15.6561 14.3522 15.8531L19.2567 20.7574C19.5849 21.0856 20.1917 21.0856 20.5196 20.7574C20.8968 20.3802 20.872 19.8329 20.5196 19.478L15.9268 14.8524Z" fill="#C50143"/>
</svg>
