<svg width="10" height="10" viewBox="0 0 10 10" fill="none" xmlns="http://www.w3.org/2000/svg">
<path d="M6.69335 5.00074L9.64933 2.04499C10.1171 1.57728 10.1171 0.819063 9.64933 0.351585C9.1821 -0.115893 8.4234 -0.115893 7.95616 0.351585L5.00018 3.30781L2.0442 0.351585C1.57696 -0.115893 0.81827 -0.115893 0.351032 0.351585C-0.116685 0.819302 -0.116685 1.57752 0.351032 2.04499L3.30677 5.00074L0.351032 7.95648C-0.116685 8.4242 -0.116685 9.18241 0.351032 9.64989C0.584531 9.88387 0.891314 10.0005 1.19762 10.0005C1.50368 10.0005 1.8107 9.88387 2.0442 9.64989L5.00018 6.69415L7.95616 9.65013C8.1899 9.88411 8.49645 10.0007 8.80275 10.0007C9.10905 10.0007 9.41584 9.88411 9.64933 9.65013C10.1171 9.18241 10.1171 8.4242 9.64933 7.95672L6.69335 5.00074Z" fill="black"/>
</svg>
