<svg width="23" height="23" viewBox="0 0 23 23" fill="none" xmlns="http://www.w3.org/2000/svg">
<path d="M17.249 0.00478553L14.2665 0C10.9157 0 8.75026 2.22168 8.75026 5.66033V8.27012H5.75143C5.4923 8.27012 5.28246 8.48021 5.28246 8.73934V12.5206C5.28246 12.7798 5.49254 12.9896 5.75143 12.9896H8.75026V22.531C8.75026 22.7902 8.9601 23 9.21924 23H13.1318C13.391 23 13.6008 22.7899 13.6008 22.531V12.9896H17.1072C17.3663 12.9896 17.5761 12.7798 17.5761 12.5206L17.5776 8.73934C17.5776 8.61492 17.528 8.49576 17.4402 8.40771C17.3524 8.31965 17.2328 8.27012 17.1083 8.27012H13.6008V6.05777C13.6008 4.99442 13.8542 4.45462 15.2394 4.45462L17.2486 4.4539C17.5075 4.4539 17.7173 4.24381 17.7173 3.98491V0.473768C17.7173 0.21511 17.5077 0.00526409 17.249 0.00478553Z" fill="white"/>
</svg>
