<svg width="16" height="16" viewBox="0 0 16 16" fill="none" xmlns="http://www.w3.org/2000/svg">
<g clip-path="url(#clip0)">
<path d="M15.7497 1.50433H12.7385C12.6001 1.50433 12.488 1.61641 12.488 1.75483V4.89301H9.63109C9.49267 4.89301 9.38062 5.00508 9.38062 5.14351V7.72846H6.46167C6.32324 7.72846 6.21117 7.84051 6.21117 7.97896V10.9692H3.41504C3.27662 10.9692 3.16454 11.0812 3.16454 11.2197V14.0043H0.249743C0.111318 14.0043 -0.000732422 14.1164 -0.000732422 14.2548C-0.000732422 14.3933 0.111318 14.5053 0.249743 14.5053H3.41504C3.55347 14.5053 3.66552 14.3933 3.66552 14.2548V11.4702H6.46167C6.60009 11.4702 6.71214 11.3581 6.71214 11.2197V8.22943H9.63109C9.76952 8.22943 9.88159 8.11738 9.88159 7.97896V5.39398H12.7385C12.8769 5.39398 12.989 5.28193 12.989 5.14351V2.00531H15.7497C15.8882 2.00531 16.0002 1.89326 16.0002 1.75483C16.0002 1.61641 15.8882 1.50433 15.7497 1.50433Z" fill="#ADADAD"/>
<path d="M1.99991 5.99559C2.06168 5.99559 2.12346 5.97192 2.17033 5.92504L5.74063 2.35472V4.75439C5.74063 4.89769 5.85661 5.01367 5.99991 5.01367C6.14323 5.01367 6.25918 4.89769 6.25918 4.75439V1.75439C6.25918 1.61107 6.14323 1.49512 5.99991 1.49512H2.99991C2.85661 1.49512 2.74063 1.61107 2.74063 1.75439C2.74063 1.89769 2.85661 2.01367 2.99991 2.01367H5.39959L1.82951 5.58374C1.73526 5.67797 1.73526 5.83079 1.82926 5.92479C1.87638 5.97192 1.93816 5.99559 1.99991 5.99559Z" fill="#ADADAD"/>
</g>
<defs>
<clipPath id="clip0">
<rect width="16" height="16" fill="white"/>
</clipPath>
</defs>
</svg>
