<svg width="77" height="77" viewBox="0 0 77 77" fill="none" xmlns="http://www.w3.org/2000/svg">
<g clip-path="url(#clip0)">
<path d="M48.0139 49.9932C49.4563 47.5826 51.577 46.3477 54.3894 46.3148C57.2017 46.2819 58.621 44.8493 58.6671 42.0304C58.7067 39.2247 59.9284 37.1039 62.339 35.6681C64.7561 34.2257 65.2798 32.2861 63.9032 29.8294C62.5333 27.3793 62.5333 24.9292 63.9032 22.4725C65.2798 20.0224 64.7594 18.0861 62.339 16.6437C59.9284 15.198 58.7034 13.0805 58.6671 10.2616C58.621 7.45584 57.2017 6.02333 54.3894 5.9904C51.577 5.95088 49.4563 4.72254 48.0139 2.31197C46.5715 -0.10519 44.6318 -0.628798 42.1817 0.747731C39.7316 2.11767 37.275 2.11767 34.8249 0.747731C32.3715 -0.625505 30.4318 -0.10519 28.9895 2.31197C27.5504 4.72583 25.4263 5.95417 22.6172 5.9904C19.8115 6.02333 18.3856 7.45584 18.346 10.2616C18.2999 13.0805 17.0782 15.1947 14.6676 16.6437C12.2505 18.0861 11.7203 20.0191 13.1034 22.4725C14.4799 24.9292 14.4799 27.3793 13.1034 29.8294C11.7203 32.2861 12.2472 34.229 14.6676 35.6681C17.0782 37.1039 18.3032 39.2247 18.346 42.0304C18.3856 44.8461 19.8115 46.2819 22.6172 46.3148C25.4296 46.3477 27.5504 47.5826 28.9927 49.9932C30.4351 52.4104 32.3748 52.934 34.8249 51.5509C37.275 50.1941 39.7316 50.1941 42.1817 51.5509C44.6318 52.9307 46.5748 52.4104 48.0139 49.9932ZM38.5099 41.5398C30.007 41.5398 23.1178 34.6505 23.1178 26.1477C23.1178 17.6514 30.007 10.7621 38.5099 10.7621C47.0062 10.7621 53.8954 17.6514 53.8954 26.1477C53.8954 34.6505 47.0062 41.5398 38.5099 41.5398Z" fill="#F2C94C"/>
<path d="M22.3702 48.5704C19.413 48.5704 19.0178 47.1938 19.0178 47.1938L7.46883 69.8934L16.7291 68.8528L21.8499 76.5587C21.8499 76.5587 32.5197 54.2971 32.5197 54.4453C26.9905 54.307 29.1903 48.7186 22.3702 48.5704Z" fill="#F2C94C"/>
<path d="M57.8373 48.083C49.4003 48.9655 51.116 51.06 49.1862 52.6868C46.9667 55.0545 44.1938 54.5902 44.1938 54.5902L57.2182 77L60.4224 68.7013L69.5312 69.8901L57.8373 48.083Z" fill="#F2C94C"/>
<path d="M41.724 22.7522L38.5033 16.2318L35.2793 22.7522L28.0707 23.806L33.2804 28.8873L32.0521 36.0729L38.5033 32.6843L44.9546 36.0729L43.7262 28.8873L48.936 23.806L41.724 22.7522Z" fill="#F2C94C"/>
</g>
<defs>
<clipPath id="clip0">
<rect width="77" height="77" fill="white"/>
</clipPath>
</defs>
</svg>
