<svg width="77" height="77" viewBox="0 0 77 77" fill="none" xmlns="http://www.w3.org/2000/svg">
<path d="M70.3467 13.2494C70.0655 12.9682 69.679 12.8086 69.2833 12.8086C68.8863 12.8086 68.4998 12.9682 68.2184 13.2494C67.9388 13.529 67.7793 13.9156 67.7793 14.3127C67.7793 14.7082 67.9388 15.0964 68.2184 15.3761C68.4996 15.6558 68.8861 15.8167 69.2833 15.8167C69.6788 15.8167 70.0655 15.656 70.3467 15.3761C70.6264 15.0964 70.7859 14.7084 70.7859 14.3127C70.7859 13.9156 70.6264 13.529 70.3467 13.2494Z" fill="#C50143"/>
<path d="M35.8036 48.6703C35.5226 48.3891 35.1359 48.2295 34.7402 48.2295C34.3432 48.2295 33.9565 48.3891 33.6753 48.6703C33.3957 48.9499 33.2362 49.3365 33.2362 49.7336C33.2362 50.1291 33.3957 50.5171 33.6753 50.797C33.9565 51.0767 34.3431 51.2376 34.7402 51.2376C35.1358 51.2376 35.5224 51.0769 35.8036 50.797C36.0834 50.5173 36.2428 50.1293 36.2428 49.7336C36.2429 49.3365 36.0835 48.9499 35.8036 48.6703Z" fill="#C50143"/>
<path d="M73.9896 18.2444C73.5791 17.5222 72.6605 17.2698 71.9388 17.6804C71.2167 18.091 70.9642 19.0092 71.3749 19.7313C75.8424 27.5874 74.4937 37.5432 68.0949 43.9419L66.9545 45.0823C66.679 44.3594 66.2522 43.6813 65.6706 43.0999L50.2171 27.6465C51.2277 27.1493 52.1615 26.4859 52.9813 25.6661L55.9452 22.7021C56.5324 22.1148 56.5324 21.1624 55.9452 20.5751C55.3577 19.9878 54.4056 19.9878 53.818 20.5751L50.8541 23.5392C49.4617 24.9315 47.6105 25.6983 45.6414 25.6983H39.7165C39.3177 25.6983 38.9352 25.8568 38.6529 26.1388L34.1172 30.6746C32.7703 32.0216 30.5786 32.0216 29.2317 30.6746C27.8847 29.3277 27.8847 27.1361 29.2317 25.7892L39.587 15.434C45.9153 9.10557 55.7949 7.71386 63.6115 12.0496C64.3379 12.4522 65.2534 12.1904 65.6563 11.4638C66.0592 10.7375 65.797 9.82189 65.0706 9.41899C60.7592 7.02793 55.6796 6.07099 50.7666 6.72534C46.1689 7.33758 41.9605 9.26273 38.5108 12.3175C34.273 8.56056 28.878 6.50607 23.1662 6.50607C16.9782 6.50607 11.1608 8.91578 6.78517 13.2912C2.40956 17.6667 0 23.4846 0 29.6724C0 35.8604 2.40971 41.6778 6.78517 46.0534L7.352 46.6202C7.45065 46.7187 7.56014 46.7993 7.67579 46.8648C7.7764 48.1659 8.32156 49.4388 9.31459 50.4317C10.4198 51.5368 11.8708 52.089 13.3222 52.089C13.3975 52.089 13.473 52.0866 13.5484 52.0836C13.5454 52.1597 13.5428 52.2358 13.5428 52.3123C13.5428 53.8262 14.1324 55.2495 15.2028 56.32C16.3081 57.425 17.759 57.9774 19.2104 57.9773C19.2858 57.9773 19.3613 57.9749 19.4366 57.9718C19.4336 58.0479 19.4311 58.124 19.4311 58.2006C19.4311 59.7144 20.0206 61.1377 21.0912 62.2082C22.1963 63.3131 23.6476 63.8655 25.0988 63.8655C25.1751 63.8655 25.2513 63.8631 25.3276 63.8601C25.2665 65.3867 25.8165 66.9336 26.9795 68.0968C28.0501 69.1672 29.4734 69.7568 30.9871 69.7568C32.5011 69.7568 33.9244 69.1672 34.9947 68.0968L37.0967 65.9946L39.9359 68.8335C41.0064 69.9041 42.4297 70.4937 43.9435 70.4937C45.4574 70.4937 46.8807 69.9041 47.9511 68.8337C49.1281 67.6567 49.6779 66.0865 49.6012 64.542C49.6957 64.5466 49.7904 64.5493 49.885 64.5493C51.3364 64.5493 52.788 63.997 53.8929 62.8919C55.0553 61.7295 55.6053 60.1838 55.5448 58.6579C55.6209 58.6609 55.697 58.6635 55.7736 58.6635C57.2874 58.6635 58.7107 58.074 59.7812 57.0035C60.9435 55.8411 61.4935 54.2954 61.4331 52.7695C61.5092 52.7725 61.5853 52.7751 61.6618 52.7751C63.1756 52.7751 64.5989 52.1856 65.6694 51.1151C66.2131 50.5714 66.6224 49.9434 66.8986 49.2731C67.0449 49.2018 67.1825 49.1069 67.3042 48.9854L70.2208 46.0687C77.5751 38.716 79.1244 27.274 73.9896 18.2444ZM13.3224 49.0836C12.6119 49.0836 11.944 48.807 11.4416 48.3046C10.9393 47.8023 10.6625 47.1344 10.6625 46.424C10.6625 45.7137 10.9391 45.0456 11.4416 44.5433L14.0334 41.9515C14.5357 41.449 15.2037 41.1725 15.9142 41.1725C16.6245 41.1725 17.2925 41.449 17.7948 41.9515C18.8319 42.9886 18.8319 44.6758 17.7948 45.7128L15.203 48.3047C14.7007 48.8069 14.0329 49.0836 13.3224 49.0836ZM17.3303 54.1931C16.8278 53.6908 16.5512 53.0228 16.5512 52.3125C16.5512 51.6021 16.8278 50.9342 17.3303 50.4319L19.9222 47.8399C19.9222 47.8399 19.9222 47.8399 19.9222 47.8397C20.4246 47.3374 21.0924 47.0607 21.8029 47.0607C22.5132 47.0607 23.1812 47.3373 23.6835 47.8397C24.7206 48.8768 24.7206 50.5641 23.6835 51.601L21.0917 54.193C20.0544 55.2299 18.3668 55.2299 17.3303 54.1931ZM23.2185 60.0814C22.7161 59.5791 22.4395 58.911 22.4395 58.2007C22.4395 57.4903 22.7161 56.8224 23.2185 56.3201L25.8105 53.7281C25.8105 53.7281 25.8105 53.7281 25.8105 53.728C26.3128 53.2257 26.9807 52.949 27.6911 52.949C28.4016 52.949 29.0695 53.2255 29.5718 53.728C30.6089 54.7652 30.6089 56.4524 29.5718 57.4894L26.9798 60.0814C25.9428 61.1185 24.2556 61.1185 23.2185 60.0814ZM35.4602 63.3779L32.8682 65.9701C32.3659 66.4724 31.698 66.7491 30.9875 66.7491C30.2772 66.7491 29.6092 66.4725 29.1069 65.9701C28.0698 64.9328 28.0698 63.2456 29.1069 62.2087L31.6989 59.6167C31.6989 59.6167 31.6989 59.6167 31.6989 59.6165C32.2012 59.1142 32.8691 58.8375 33.5795 58.8375C34.2898 58.8375 34.9579 59.1141 35.4602 59.6165C35.9626 60.1188 36.2392 60.7869 36.2392 61.4972C36.2393 62.2079 35.9626 62.8756 35.4602 63.3779ZM63.5435 48.9881C63.0412 49.4906 62.3732 49.7671 61.6629 49.7671C60.9524 49.7671 60.2845 49.4906 59.7822 48.9881L53.5219 42.7278C53.5216 42.7275 53.5215 42.7274 53.5212 42.7271L47.6334 36.8393C47.0459 36.252 46.0938 36.252 45.5062 36.8393C44.919 37.4265 44.919 38.379 45.5062 38.9662L57.6551 51.1148C58.6922 52.152 58.6922 53.8393 57.6551 54.8762C57.1528 55.3787 56.4848 55.6552 55.7745 55.6552C55.064 55.6552 54.3961 55.3787 53.8938 54.8762L41.745 42.7275C41.1576 42.1404 40.2054 42.1404 39.6179 42.7275C39.0306 43.3148 39.0306 44.2672 39.6179 44.8546L45.505 50.7417C45.5055 50.7421 45.506 50.7427 45.5064 50.7432L51.7669 57.0033C52.804 58.0406 52.804 59.728 51.767 60.7649C50.7298 61.802 49.0422 61.802 48.0056 60.7649L41.7451 54.5044C41.6293 54.3888 41.4992 54.2967 41.3607 54.2267L39.5751 52.4411C38.9877 51.854 38.0356 51.854 37.448 52.4411C36.8607 53.0284 36.8607 53.9808 37.448 54.5682L45.8251 62.945C46.8622 63.9822 46.8622 65.6694 45.8251 66.7064C45.3228 67.2088 44.6547 67.4854 43.9444 67.4854C43.234 67.4854 42.5661 67.2088 42.0638 66.7064L38.8761 63.5189C39.119 62.8817 39.2474 62.1993 39.2474 61.497C39.2474 59.9832 38.6579 58.5599 37.5874 57.4894C36.5168 56.4189 35.0935 55.8294 33.5798 55.8294C33.5033 55.8294 33.4272 55.8319 33.3511 55.8349C33.4114 54.3091 32.8616 52.7634 31.6992 51.601C30.6286 50.5305 29.2053 49.941 27.6916 49.941C27.615 49.941 27.5389 49.9436 27.4628 49.9466C27.5233 48.4207 26.9733 46.875 25.8109 45.7126C24.7403 44.6421 23.317 44.0526 21.8033 44.0526C21.7268 44.0526 21.6507 44.0552 21.5746 44.0582C21.635 42.5323 21.0851 40.9866 19.9227 39.8242C17.7129 37.6144 14.1169 37.6145 11.907 39.8242L9.3152 42.416C8.98825 42.743 8.71108 43.1008 8.48068 43.4795C4.94785 39.7271 3.00871 34.8488 3.00871 29.6721C3.00871 24.2877 5.10546 19.2254 8.91305 15.4181C12.7203 11.6108 17.7828 9.51389 23.1671 9.51389C28.0602 9.51389 32.6871 11.2458 36.3479 14.4193L27.1054 23.6619C25.8848 24.8826 25.2125 26.5055 25.2125 28.2317C25.2125 29.958 25.8848 31.5809 27.1054 32.8016C28.3653 34.0614 30.0204 34.6914 31.6753 34.6914C33.3302 34.6914 34.9852 34.0615 36.2452 32.8016L40.3406 28.7061H45.6424C46.0801 28.7061 46.5131 28.6762 46.9408 28.6231L63.5444 45.2264C64.5804 46.2639 64.5804 47.9513 63.5435 48.9881Z" fill="#C50143"/>
</svg>
