<svg width="72" height="72" viewBox="0 0 72 72" fill="none" xmlns="http://www.w3.org/2000/svg">
<g clip-path="url(#clip0)">
<path d="M1.05468 52.5701C1.63696 52.5701 2.10937 52.0983 2.10937 51.5154V20.7971H64.4244V32.3904C64.4244 32.9733 64.8968 33.4451 65.4791 33.4451C66.0619 33.4451 66.5337 32.9733 66.5337 32.3904V11.5466C66.5337 8.01068 63.657 5.13391 60.1216 5.13391H57.3558V3.82764C57.3558 2.41479 56.2066 1.26562 54.7938 1.26562H52.8343C51.4221 1.26562 50.2729 2.41479 50.2729 3.82764V5.13391H43.2779V3.82764C43.2779 2.41479 42.1287 1.26562 40.7159 1.26562H38.7565C37.3442 1.26562 36.195 2.41479 36.195 3.82764V5.13391H29.1995V3.82764C29.1995 2.41479 28.0503 1.26562 26.6374 1.26562H24.6786C23.2657 1.26562 22.1166 2.41479 22.1166 3.82764V5.13391H15.1216V3.82764C15.1216 2.41479 13.9724 1.26562 12.5596 1.26562H10.6007C9.18786 1.26562 8.03869 2.41479 8.03869 3.82764V5.13391H6.41271C2.87676 5.13391 -7.62939e-06 8.01068 -7.62939e-06 11.5466V51.5154C-7.62939e-06 52.0983 0.472404 52.5701 1.05468 52.5701ZM52.3823 3.82764C52.3823 3.57825 52.5855 3.375 52.8349 3.375H54.7943C55.0437 3.375 55.2464 3.57825 55.2464 3.82764V8.95166C55.2464 9.20105 55.0437 9.4043 54.7943 9.4043H52.8349C52.5855 9.4043 52.3823 9.2016 52.3823 8.95166V3.82764ZM38.3044 3.82764C38.3044 3.57825 38.5071 3.375 38.7565 3.375H40.7159C40.9653 3.375 41.1685 3.57825 41.1685 3.82764V8.95166C41.1685 9.20105 40.9653 9.4043 40.7159 9.4043H38.7565C38.5071 9.4043 38.3044 9.2016 38.3044 8.95166V3.82764ZM24.2259 3.82764C24.2259 3.57825 24.4292 3.375 24.6786 3.375H26.638C26.8874 3.375 27.0906 3.57825 27.0906 3.82764V8.95166C27.0906 9.20105 26.8874 9.4043 26.638 9.4043H24.6786C24.4292 9.4043 24.2259 9.2016 24.2259 8.95166V3.82764ZM10.1481 3.82764C10.1481 3.57825 10.3513 3.375 10.6007 3.375H12.5601C12.8095 3.375 13.0122 3.57825 13.0122 3.82764V8.95166C13.0122 9.20105 12.8095 9.4043 12.5601 9.4043H10.6007C10.3513 9.4043 10.1481 9.2016 10.1481 8.95166V3.82764ZM6.41271 7.24329H8.03869V8.95166C8.03869 10.3645 9.18786 11.5137 10.6007 11.5137H12.5601C13.9724 11.5137 15.1216 10.3645 15.1216 8.95166V7.24329H22.1171V8.95166C22.1171 10.3645 23.2663 11.5137 24.6786 11.5137H26.638C28.0508 11.5137 29.2 10.3645 29.2 8.95166V7.24329H36.195V8.95166C36.195 10.3645 37.3442 11.5137 38.757 11.5137H40.7164C42.1287 11.5137 43.2779 10.3645 43.2779 8.95166V7.24329H50.2729V8.95166C50.2729 10.3645 51.4221 11.5137 52.8349 11.5137H54.7943C56.2066 11.5137 57.3558 10.3645 57.3558 8.95166V7.24329H60.1216C62.4946 7.24329 64.4249 9.17358 64.4249 11.5466V18.6877H2.10937V11.5466C2.10937 9.17358 4.03967 7.24329 6.41271 7.24329Z" fill="#1FC056"/>
<path d="M11.9405 62.3787H2.74383C2.39391 62.3787 2.10937 62.0942 2.10937 61.7443V56.322C2.10937 55.7391 1.63696 55.2673 1.05468 55.2673C0.472404 55.2673 -7.62939e-06 55.7391 -7.62939e-06 56.322V61.7443C-7.62939e-06 63.2571 1.23101 64.4881 2.74383 64.4881H11.9405C12.5228 64.4881 12.9952 64.0157 12.9952 63.4334C12.9952 62.8506 12.5228 62.3787 11.9405 62.3787Z" fill="#1FC056"/>
<path d="M11.9053 23.8727H8.23918C7.65691 23.8727 7.18449 24.3452 7.18449 24.9274C7.18449 25.5103 7.65691 25.9821 8.23918 25.9821H11.9053C12.4876 25.9821 12.96 25.5103 12.96 24.9274C12.96 24.3452 12.4876 23.8727 11.9053 23.8727Z" fill="#1FC056"/>
<path d="M19.5057 25.9821H23.1718C23.7541 25.9821 24.2265 25.5103 24.2265 24.9274C24.2265 24.3452 23.7541 23.8727 23.1718 23.8727H19.5057C18.9234 23.8727 18.451 24.3452 18.451 24.9274C18.451 25.5103 18.9234 25.9821 19.5057 25.9821Z" fill="#1FC056"/>
<path d="M30.7722 25.9821H34.4378C35.02 25.9821 35.4924 25.5103 35.4924 24.9274C35.4924 24.3452 35.02 23.8727 34.4378 23.8727H30.7722C30.1893 23.8727 29.7175 24.3452 29.7175 24.9274C29.7175 25.5103 30.1893 25.9821 30.7722 25.9821Z" fill="#1FC056"/>
<path d="M42.0381 25.9821H45.7042C46.2865 25.9821 46.7589 25.5103 46.7589 24.9274C46.7589 24.3452 46.2865 23.8727 45.7042 23.8727H42.0381C41.4558 23.8727 40.9834 24.3452 40.9834 24.9274C40.9834 25.5103 41.4558 25.9821 42.0381 25.9821Z" fill="#1FC056"/>
<path d="M56.9702 23.8727H53.3046C52.7217 23.8727 52.2499 24.3452 52.2499 24.9274C52.2499 25.5103 52.7217 25.9821 53.3046 25.9821H56.9702C57.5524 25.9821 58.0248 25.5103 58.0248 24.9274C58.0248 24.3452 57.5524 23.8727 56.9702 23.8727Z" fill="#1FC056"/>
<path d="M11.9053 29.1764H8.23918C7.65691 29.1764 7.18449 29.6483 7.18449 30.2311C7.18449 30.8139 7.65691 31.2858 8.23918 31.2858H11.9053C12.4876 31.2858 12.96 30.8139 12.96 30.2311C12.96 29.6483 12.4876 29.1764 11.9053 29.1764Z" fill="#1FC056"/>
<path d="M19.5057 31.2858H23.1718C23.7541 31.2858 24.2265 30.8139 24.2265 30.2311C24.2265 29.6483 23.7541 29.1764 23.1718 29.1764H19.5057C18.9234 29.1764 18.451 29.6483 18.451 30.2311C18.451 30.8139 18.9234 31.2858 19.5057 31.2858Z" fill="#1FC056"/>
<path d="M30.7722 31.2858H34.4378C35.02 31.2858 35.4924 30.8139 35.4924 30.2311C35.4924 29.6483 35.02 29.1764 34.4378 29.1764H30.7722C30.1893 29.1764 29.7175 29.6483 29.7175 30.2311C29.7175 30.8139 30.1893 31.2858 30.7722 31.2858Z" fill="#1FC056"/>
<path d="M42.0381 31.2858H45.7042C46.2865 31.2858 46.7589 30.8139 46.7589 30.2311C46.7589 29.6483 46.2865 29.1764 45.7042 29.1764H42.0381C41.4558 29.1764 40.9834 29.6483 40.9834 30.2311C40.9834 30.8139 41.4558 31.2858 42.0381 31.2858Z" fill="#1FC056"/>
<path d="M56.9702 29.1764H53.3046C52.7217 29.1764 52.2499 29.6483 52.2499 30.2311C52.2499 30.8139 52.7217 31.2858 53.3046 31.2858H56.9702C57.5524 31.2858 58.0248 30.8139 58.0248 30.2311C58.0248 29.6483 57.5524 29.1764 56.9702 29.1764Z" fill="#1FC056"/>
<path d="M19.5315 51.9911L24.9543 57.414C25.7388 58.1984 26.7814 58.6302 27.891 58.6302C29.0006 58.6302 30.0438 58.1984 30.8276 57.414L45.6784 42.5632C47.2978 40.9438 47.2978 38.3088 45.6784 36.6894C44.059 35.07 41.4239 35.07 39.8046 36.6894L27.891 48.603L25.4048 46.1173C23.7859 44.4979 21.1509 44.4979 19.5309 46.1173C17.9121 47.7367 17.9121 50.3718 19.5315 51.9911ZM21.0229 47.6087C21.4211 47.2104 21.9446 47.011 22.4681 47.011C22.9916 47.011 23.5151 47.2104 23.9134 47.6087L27.145 50.8403C27.557 51.2523 28.2244 51.2523 28.6364 50.8403L41.296 38.1813C42.0936 37.3843 43.39 37.3843 44.1865 38.1808C44.9835 38.9778 44.9835 40.2748 44.1865 41.0718L29.3362 55.9221C28.9501 56.3082 28.437 56.5208 27.891 56.5208C27.345 56.5208 26.8319 56.3082 26.4457 55.9221L21.0229 50.4992C20.2258 49.7021 20.2258 48.4058 21.0229 47.6087Z" fill="#1FC056"/>
<path d="M66.5337 45.613V37.197C66.5337 36.6141 66.0619 36.1423 65.4791 36.1423C64.8968 36.1423 64.4244 36.6141 64.4244 37.197V44.2678C62.5012 43.2708 60.3188 42.7066 58.0073 42.7066C50.2916 42.7066 44.0145 48.9836 44.0145 56.6993C44.0145 58.7203 44.4457 60.6418 45.2197 62.3787H16.7465C16.1642 62.3787 15.6918 62.8506 15.6918 63.4334C15.6918 64.0157 16.1642 64.4881 16.7465 64.4881H46.3881C48.9023 68.2273 53.1722 70.6921 58.0073 70.6921C65.723 70.6921 72 64.415 72 56.6993C72 52.1906 69.8555 48.1734 66.5337 45.613ZM58.0073 68.5827C51.4545 68.5827 46.1239 63.2521 46.1239 56.6993C46.1239 50.1465 51.455 44.816 58.0073 44.816C64.5595 44.816 69.8906 50.1465 69.8906 56.6993C69.8906 63.2521 64.5595 68.5827 58.0073 68.5827Z" fill="#1FC056"/>
<path d="M58.0073 46.3398C52.2949 46.3398 47.6477 50.9875 47.6477 56.6993C47.6477 62.4117 52.2949 67.0589 58.0073 67.0589C63.7196 67.0589 68.3663 62.4117 68.3663 56.6993C68.3663 50.9875 63.7191 46.3398 58.0073 46.3398ZM58.9515 64.8935C59.0213 64.7523 59.062 64.5941 59.062 64.426V63.1412C59.062 62.5589 58.5895 62.0865 58.0073 62.0865C57.425 62.0865 56.9526 62.5589 56.9526 63.1412V64.426C56.9526 64.5941 56.9927 64.7523 57.063 64.8935C53.2672 64.459 50.2476 61.4394 49.8131 57.6436C49.9537 57.7139 50.1125 57.754 50.2806 57.754H51.5649C52.1477 57.754 52.6196 57.2822 52.6196 56.6993C52.6196 56.1165 52.1477 55.6447 51.5649 55.6447H50.2806C50.1125 55.6447 49.9537 55.6853 49.8131 55.7551C50.2476 51.9593 53.2672 48.9397 57.063 48.5052C56.9927 48.6464 56.9526 48.8046 56.9526 48.9727V50.2575C56.9526 50.8403 57.425 51.3122 58.0073 51.3122C58.5895 51.3122 59.062 50.8403 59.062 50.2575V48.9727C59.062 48.8046 59.0213 48.6464 58.9515 48.5052C62.7473 48.9397 65.7669 51.9593 66.2014 55.7551C66.0602 55.6853 65.902 55.6447 65.7339 55.6447H64.4491C63.8668 55.6447 63.3944 56.1165 63.3944 56.6993C63.3944 57.2822 63.8668 57.754 64.4491 57.754H65.7339C65.902 57.754 66.0602 57.7139 66.2014 57.6436C65.7664 61.4394 62.7473 64.459 58.9515 64.8935Z" fill="#1FC056"/>
<path d="M60.332 55.6447H59.062V54.563C59.062 53.9808 58.5896 53.5084 58.0073 53.5084C57.4244 53.5084 56.9526 53.9808 56.9526 54.563V56.6993C56.9526 57.2822 57.4244 57.754 58.0073 57.754H60.332C60.9143 57.754 61.3867 57.2822 61.3867 56.6993C61.3867 56.1165 60.9143 55.6447 60.332 55.6447Z" fill="#1FC056"/>
</g>
<defs>
<clipPath id="clip0">
<rect width="72" height="72" fill="white"/>
</clipPath>
</defs>
</svg>
