<svg width="23" height="23" viewBox="0 0 23 23" fill="none" xmlns="http://www.w3.org/2000/svg">
<path d="M16.7855 0H6.21454C2.78785 0 0 2.78785 0 6.21454V16.7855C0 20.2121 2.78785 23 6.21454 23H16.7855C20.2121 23 23 20.2121 23 16.7855V6.21454C23 2.78785 20.2121 0 16.7855 0ZM21.1419 16.7855C21.1419 19.1876 19.1876 21.1419 16.7855 21.1419H6.21454C3.81243 21.1419 1.85815 19.1876 1.85815 16.7855V6.21454C1.85815 3.81243 3.81239 1.85815 6.21454 1.85815H16.7855C19.1876 1.85815 21.1419 3.81239 21.1419 6.21454V16.7855Z" fill="white"/>
<path d="M16.6474 10.6977C16.4839 9.59504 15.9808 8.59562 15.1926 7.80737C14.4043 7.01917 13.4049 6.51605 12.3023 6.35258C11.8002 6.27814 11.2912 6.27814 10.7892 6.35258C9.42645 6.55468 8.22402 7.27532 7.40334 8.38179C6.58267 9.48826 6.24193 10.8481 6.44404 12.2108C6.64614 13.5735 7.36678 14.7759 8.47325 15.5966C9.37151 16.2629 10.4366 16.6127 11.5348 16.6127C11.7894 16.6127 12.0458 16.5939 12.3022 16.5559C13.665 16.3538 14.8674 15.6332 15.6881 14.5267C16.5088 13.4203 16.8495 12.0604 16.6474 10.6977ZM12.0297 14.7178C11.158 14.8473 10.288 14.6292 9.58021 14.1042C8.87238 13.5792 8.41139 12.81 8.28215 11.9382C8.15287 11.0665 8.37078 10.1966 8.89578 9.4888C9.42083 8.78096 10.19 8.31998 11.0618 8.19069C11.2223 8.16688 11.384 8.15498 11.5457 8.15498C11.7074 8.15498 11.8691 8.16688 12.0296 8.19073C13.4775 8.40542 14.5946 9.52244 14.8093 10.9704C15.0761 12.7698 13.8292 14.451 12.0297 14.7178Z" fill="white"/>
<path d="M17.971 5.0291C17.7979 4.8561 17.5585 4.75696 17.314 4.75696C17.0695 4.75696 16.83 4.85606 16.657 5.0291C16.484 5.20214 16.3849 5.44121 16.3849 5.68608C16.3849 5.93095 16.484 6.17003 16.657 6.34307C16.83 6.51606 17.0695 6.6152 17.314 6.6152C17.5585 6.6152 17.7979 6.51611 17.971 6.34307C18.144 6.17003 18.2431 5.93055 18.2431 5.68608C18.2431 5.44157 18.144 5.20209 17.971 5.0291Z" fill="white"/>
</svg>
