<svg width="6" height="6" viewBox="0 0 6 6" fill="none" xmlns="http://www.w3.org/2000/svg">
<path d="M2.99004 5.49175H0.747504C0.609961 5.49175 0.49834 5.38012 0.49834 5.24258V0.757525C0.49834 0.619982 0.609973 0.508361 0.747504 0.508361H2.99004C3.12783 0.508361 3.2392 0.396986 3.2392 0.259197C3.2392 0.121408 3.12783 0.0100098 2.99004 0.0100098H0.747504C0.335379 0.0100098 0 0.3454 0 0.757525V5.24257C0 5.6547 0.335379 5.99008 0.747504 5.99008H2.99004C3.12783 5.99008 3.2392 5.8787 3.2392 5.74091C3.2392 5.60312 3.12783 5.49175 2.99004 5.49175Z" fill="#A8A8A8"/>
<path d="M5.92551 2.82261L4.41057 1.32759C4.3129 1.23091 4.15493 1.23217 4.05825 1.33009C3.96158 1.42801 3.96257 1.58573 4.06075 1.68241L5.14337 2.75085H2.24233C2.10454 2.75085 1.99316 2.86222 1.99316 3.00001C1.99316 3.1378 2.10454 3.24919 2.24233 3.24919H5.14337L4.06075 4.31762C3.96258 4.4143 3.96183 4.57202 4.05825 4.66995C4.10709 4.71928 4.17137 4.74419 4.23566 4.74419C4.29895 4.74419 4.36223 4.72028 4.41057 4.67243L5.92551 3.17741C5.97285 3.13057 5.99976 3.06677 5.99976 3C5.99976 2.93325 5.9731 2.86971 5.92551 2.82261Z" fill="#A8A8A8"/>
</svg>
