<svg width="15" height="15" viewBox="0 0 15 15" fill="none" xmlns="http://www.w3.org/2000/svg">
<g clip-path="url(#clip0)">
<path d="M13.2209 10.3872C15.5939 8.01409 15.5939 4.15271 13.2209 1.77959C10.8477 -0.593532 6.98641 -0.593532 4.61334 1.77959C2.60006 3.79286 2.29516 6.78711 3.69779 9.12529C3.69779 9.12529 3.79854 9.29432 3.66246 9.4303C2.88618 10.2065 0.557171 12.5356 0.557171 12.5356C-0.0609108 13.1536 -0.20805 14.0179 0.340062 14.5661L0.434434 14.6603C0.982547 15.2085 1.84683 15.0615 2.46486 14.4434C2.46486 14.4434 4.78894 12.1193 5.56363 11.3446C5.70623 11.202 5.87521 11.3028 5.87521 11.3028C8.21335 12.7053 11.2076 12.4005 13.2209 10.3872ZM5.73701 9.26349C3.98351 7.51 3.98356 4.6569 5.73706 2.90341C7.49055 1.14996 10.3437 1.14991 12.0971 2.90341C13.8506 4.65685 13.8506 7.51 12.0971 9.26349C10.3436 11.0169 7.49055 11.0169 5.73701 9.26349Z" fill="white"/>
<path d="M6.12491 5.72244C6.0433 5.72244 5.96033 5.7064 5.88036 5.67262C5.5609 5.53742 5.41144 5.16882 5.54665 4.84932C6.39643 2.84112 8.72152 1.8987 10.7297 2.74848C11.0491 2.88369 11.1986 3.25229 11.0634 3.57179C10.9281 3.89129 10.5596 4.04065 10.24 3.9055C8.86992 3.32573 7.28342 3.96875 6.70371 5.33886C6.60228 5.57849 6.36966 5.72244 6.12491 5.72244Z" fill="white"/>
</g>
<defs>
<clipPath id="clip0">
<rect width="15" height="15" fill="white"/>
</clipPath>
</defs>
</svg>
