<svg width="20" height="20" viewBox="0 0 20 20" fill="none" xmlns="http://www.w3.org/2000/svg">
<g clip-path="url(#clip0)">
<path d="M10.0001 12.5631V4.93604C9.78388 4.95603 9.57014 4.98978 9.35266 4.99978H3.12554C2.78056 4.99978 2.50058 5.27976 2.50058 5.62474V6.2497H0.625694C0.280715 6.2497 0.000732422 6.52969 0.000732422 6.87466V10.6244C0.000732422 10.9694 0.280715 11.2494 0.625694 11.2494H2.50058V11.8744C2.50058 12.2193 2.78056 12.4993 3.12554 12.4993H3.50427L6.01661 19.1964C6.17035 19.5976 6.51408 19.8889 6.93656 19.9738C7.0203 19.9913 7.10405 20.0001 7.18654 20.0001C7.52027 20.0001 7.83775 19.8676 8.06524 19.6301L9.56639 18.1415C9.95012 17.7577 10.0414 17.159 9.79638 16.6953L7.69901 12.4993H9.35891C9.57389 12.5093 9.78638 12.5431 10.0001 12.5631Z" fill="#017C2B"/>
<path d="M19.8967 0.302481C19.8842 0.281232 19.873 0.263734 19.8567 0.243735C19.788 0.15624 19.7017 0.0849947 19.5955 0.0437473C19.5917 0.0424973 19.5892 0.0374977 19.5855 0.0362477C19.573 0.032498 19.5617 0.0387476 19.5492 0.0349978C19.493 0.0187488 19.4367 0 19.3742 0C19.3317 0 19.2943 0.016249 19.253 0.0249984C19.2293 0.0299981 19.2068 0.031248 19.183 0.0387476C19.0755 0.0737454 18.983 0.133742 18.9093 0.216236C18.9043 0.221236 18.8968 0.222486 18.8918 0.227486C16.9431 2.59359 14.2258 4.17599 11.2498 4.75595V12.7442C14.2258 13.3242 16.9431 14.9053 18.8918 17.2714C18.8968 17.2777 18.9055 17.2802 18.9118 17.2877C18.9555 17.3364 19.0093 17.3752 19.0668 17.4077C19.0855 17.4189 19.1005 17.4352 19.1193 17.4439C19.198 17.4777 19.283 17.4989 19.3742 17.4989C19.4455 17.4989 19.5155 17.4864 19.5855 17.4627C19.5892 17.4614 19.5917 17.4564 19.5955 17.4552C19.7017 17.4139 19.788 17.3439 19.8567 17.2552C19.8717 17.2352 19.883 17.2177 19.8967 17.1964C19.9567 17.1002 19.9992 16.9939 19.9992 16.8739V0.624961C19.9992 0.504968 19.9567 0.398725 19.8967 0.302481Z" fill="#017C2B"/>
</g>
<defs>
<clipPath id="clip0">
<rect width="20" height="20" fill="white"/>
</clipPath>
</defs>
</svg>
