<?xml version="1.0" encoding="UTF-8" standalone="no"?>
<svg
   xmlns:dc="http://purl.org/dc/elements/1.1/"
   xmlns:cc="http://creativecommons.org/ns#"
   xmlns:rdf="http://www.w3.org/1999/02/22-rdf-syntax-ns#"
   xmlns:svg="http://www.w3.org/2000/svg"
   xmlns="http://www.w3.org/2000/svg"
   xmlns:sodipodi="http://sodipodi.sourceforge.net/DTD/sodipodi-0.dtd"
   xmlns:inkscape="http://www.inkscape.org/namespaces/inkscape"
   width="6"
   height="6"
   viewBox="0 0 6 6"
   fill="none"
   version="1.1"
   id="svg13"
   sodipodi:docname="mylist.svg"
   inkscape:version="0.92.3 (2405546, 2018-03-11)">
  <metadata
     id="metadata17">
    <rdf:RDF>
      <cc:Work
         rdf:about="">
        <dc:format>image/svg+xml</dc:format>
        <dc:type
           rdf:resource="http://purl.org/dc/dcmitype/StillImage" />
      </cc:Work>
    </rdf:RDF>
  </metadata>
  <sodipodi:namedview
     pagecolor="#ffffff"
     bordercolor="#666666"
     borderopacity="1"
     objecttolerance="10"
     gridtolerance="10"
     guidetolerance="10"
     inkscape:pageopacity="0"
     inkscape:pageshadow="2"
     inkscape:window-width="1366"
     inkscape:window-height="719"
     id="namedview15"
     showgrid="false"
     inkscape:zoom="39.333333"
     inkscape:cx="-0.012711864"
     inkscape:cy="3"
     inkscape:window-x="0"
     inkscape:window-y="0"
     inkscape:window-maximized="1"
     inkscape:current-layer="g6" />
  <g
     clip-path="url(#clip0)"
     id="g6">
    <path
       d="M3.00079 3.76894V1.48083C2.93592 1.48683 2.8718 1.49696 2.80655 1.49996H0.938419C0.834925 1.49996 0.75093 1.58395 0.75093 1.68745V1.87494H0.188465C0.0849714 1.87494 0.000976562 1.95893 0.000976562 2.06242V3.18735C0.000976562 3.29085 0.0849714 3.37484 0.188465 3.37484H0.75093V3.56233C0.75093 3.66582 0.834925 3.74982 0.938419 3.74982H1.05204L1.80574 5.75894C1.85186 5.87931 1.95498 5.96668 2.08172 5.99218C2.10685 5.99743 2.13197 6.00005 2.15672 6.00005C2.25684 6.00005 2.35208 5.9603 2.42033 5.88906L2.87068 5.44246C2.98579 5.32734 3.01317 5.14773 2.93967 5.00861L2.31046 3.74982H2.80843C2.87293 3.75282 2.93667 3.76294 3.00079 3.76894Z"
       fill="#515151"
       id="path2"
       style="fill:#a8a8a8;fill-opacity:1" />
    <path
       d="M5.96909 0.0907443C5.96534 0.0843697 5.96196 0.0791201 5.95709 0.0731204C5.93647 0.0468721 5.91059 0.0254984 5.87872 0.0131242C5.87759 0.0127492 5.87684 0.0112493 5.87572 0.0108743C5.87197 0.00974939 5.86859 0.0116243 5.86485 0.0104993C5.84797 0.00562465 5.8311 0 5.81235 0C5.7996 0 5.78835 0.0048747 5.77598 0.00749953C5.76885 0.00899944 5.7621 0.00937441 5.75498 0.0116243C5.72273 0.0221236 5.69498 0.0401225 5.67286 0.0648709C5.67136 0.0663709 5.66911 0.0667458 5.66761 0.0682457C5.08302 0.778076 4.26782 1.2528 3.375 1.42679V3.82326C4.26782 3.99725 5.08302 4.4716 5.66761 5.18143C5.66911 5.1833 5.67173 5.18405 5.67361 5.1863C5.68673 5.20093 5.70286 5.21255 5.7201 5.2223C5.72573 5.22567 5.73023 5.23055 5.73585 5.23317C5.75948 5.2433 5.78497 5.24967 5.81235 5.24967C5.83372 5.24967 5.85472 5.24592 5.87572 5.2388C5.87684 5.23842 5.87759 5.23692 5.87872 5.23655C5.91059 5.22417 5.93647 5.20318 5.95709 5.17655C5.96159 5.17055 5.96496 5.1653 5.96909 5.15893C5.98709 5.13005 5.99984 5.09818 5.99984 5.06218V0.187488C5.99984 0.151491 5.98709 0.119618 5.96909 0.0907443Z"
       fill="#515151"
       id="path4"
       style="fill:#a8a8a8;fill-opacity:1" />
  </g>
  <defs
     id="defs11">
    <clipPath
       id="clip0">
      <rect
         width="6"
         height="6"
         fill="white"
         id="rect8" />
    </clipPath>
  </defs>
</svg>
