<svg width="100" height="99" viewBox="0 0 100 99" fill="none" xmlns="http://www.w3.org/2000/svg">
<path d="M0 48.9998H30V97.9998C30 98.552 29.5523 98.9998 29 98.9998H1C0.447715 98.9998 0 98.552 0 97.9998V48.9998Z" fill="#63CB8E"/>
<path d="M73 48.9998H100V97.9998C100 98.552 99.5523 98.9998 99 98.9998H74C73.4477 98.9998 73 98.552 73 97.9998V48.9998Z" fill="#63CB8E"/>
<path d="M26.5287 22.6925C26.9193 22.3019 27.5524 22.3019 27.9429 22.6925L48.325 43.0745C48.7155 43.465 48.7155 44.0982 48.325 44.4887L21.7968 71.017L0.000500946 49.2207L26.5287 22.6925Z" fill="#63CB8E"/>
<path d="M30.7254 21.1615C30.3349 20.7709 30.3349 20.1378 30.7254 19.7472L49.7656 0.707072C50.1561 0.316547 50.7893 0.316548 51.1798 0.707072L99.6735 49.2008L79.2191 69.6551L30.7254 21.1615Z" fill="#63CB8E"/>
<path d="M67 15.9998H89C89.5523 15.9998 90 16.4475 90 16.9998V42.9998H67V15.9998Z" fill="#63CB8E"/>
</svg>
