<svg width="19" height="19" viewBox="0 0 19 19" fill="none" xmlns="http://www.w3.org/2000/svg">
<path d="M5.89705 8.68137C5.90862 8.68137 5.92018 8.68137 5.93406 8.68137C5.93868 8.68137 5.94331 8.68137 5.94794 8.68137C5.95487 8.68137 5.96413 8.68137 5.97106 8.68137C6.64872 8.67153 7.19686 8.4689 7.6016 8.08135C8.49203 7.22754 8.34401 5.76389 8.32782 5.62421C8.27 4.57565 7.68717 4.07399 7.20611 3.83989C6.84762 3.6648 6.429 3.57037 5.96181 3.5625H5.94562C5.94331 3.5625 5.93868 3.5625 5.93637 3.5625H5.92249C5.66577 3.5625 5.16158 3.59791 4.6782 3.83202C4.19251 4.06612 3.60043 4.56778 3.54261 5.62421C3.52642 5.76389 3.3784 7.22754 4.26883 8.08135C4.67126 8.4689 5.2194 8.67153 5.89705 8.68137ZM4.16013 5.67339C4.16013 5.66749 4.16244 5.66159 4.16244 5.65765C4.23877 4.24711 5.41599 4.09563 5.92018 4.09563H5.92943C5.93406 4.09563 5.941 4.09563 5.94794 4.09563C6.5724 4.10744 7.63398 4.32384 7.70567 5.65765C7.70567 5.66356 7.70567 5.66946 7.70799 5.67339C7.7103 5.68716 7.8722 7.02492 7.13672 7.7292C6.84531 8.00856 6.45675 8.14627 5.94562 8.1502C5.941 8.1502 5.93868 8.1502 5.93406 8.1502C5.92943 8.1502 5.92712 8.1502 5.92249 8.1502C5.41368 8.14627 5.02281 8.00856 4.73371 7.7292C4.00055 7.02885 4.15782 5.6852 4.16013 5.67339Z" fill="#ADADAD"/>
<path d="M10.6869 11.109C10.6869 11.107 10.6869 11.105 10.6869 11.1031C10.6869 11.0873 10.6845 11.0716 10.6845 11.0539C10.6707 10.6644 10.6406 9.75351 9.63684 9.46235C9.6299 9.46039 9.62065 9.45842 9.61371 9.45645C8.57063 9.23021 7.70332 8.71872 7.69407 8.71282C7.55299 8.62822 7.35871 8.65773 7.25926 8.77774C7.15981 8.89774 7.1945 9.06299 7.33559 9.14759C7.3749 9.17119 8.2954 9.71613 9.44718 9.96794C9.98607 10.1312 10.0462 10.6211 10.0624 11.0696C10.0624 11.0873 10.0624 11.1031 10.0647 11.1188C10.067 11.2959 10.0531 11.5693 10.0161 11.7267C9.64146 11.9077 8.17282 12.5333 5.93865 12.5333C3.71372 12.5333 2.23583 11.9057 1.85885 11.7247C1.82184 11.5673 1.80565 11.2939 1.81028 11.1168C1.81028 11.1011 1.81259 11.0854 1.81259 11.0677C1.82878 10.6191 1.88891 10.1293 2.4278 9.96598C3.57958 9.71417 4.50008 9.16726 4.5394 9.14562C4.68048 9.06103 4.71517 8.89578 4.61572 8.77577C4.51627 8.65577 4.32199 8.62626 4.18091 8.71085C4.17166 8.71675 3.30898 9.22825 2.26127 9.45448C2.25202 9.45645 2.24509 9.45842 2.23815 9.46039C1.23439 9.75351 1.20432 10.6644 1.19044 11.0519C1.19044 11.0696 1.19044 11.0854 1.18813 11.1011C1.18813 11.1031 1.18813 11.105 1.18813 11.107C1.18582 11.2093 1.1835 11.7346 1.30608 11.9982C1.32921 12.0493 1.37084 12.0926 1.42635 12.1221C1.49573 12.1615 3.15865 13.0625 5.94096 13.0625C8.72327 13.0625 10.3862 12.1595 10.4556 12.1221C10.5088 12.0926 10.5527 12.0493 10.5758 11.9982C10.6915 11.7365 10.6892 11.2113 10.6869 11.109Z" fill="#ADADAD"/>
<path d="M11.8244 11.1486C11.8388 11.1486 11.8533 11.1486 11.8706 11.1486C11.8764 11.1486 11.8822 11.1486 11.888 11.1486C11.8967 11.1486 11.9082 11.1486 11.9169 11.1486C12.764 11.1363 13.4491 10.883 13.9551 10.3986C15.0681 9.33131 14.8831 7.50173 14.8628 7.32714C14.7906 6.01644 14.062 5.38937 13.4607 5.09673C13.0126 4.87787 12.4893 4.75984 11.9053 4.75H11.8851C11.8822 4.75 11.8764 4.75 11.8735 4.75H11.8562C11.5353 4.75 10.905 4.79426 10.3008 5.0869C9.6937 5.37953 8.9536 6.0066 8.88133 7.32714C8.86109 7.50173 8.67606 9.33131 9.7891 10.3986C10.2921 10.883 10.9773 11.1363 11.8244 11.1486ZM9.65323 7.38862C9.65323 7.38124 9.65612 7.37386 9.65612 7.36894C9.75152 5.60577 11.223 5.41642 11.8533 5.41642H11.8649C11.8706 5.41642 11.8793 5.41642 11.888 5.41642C12.6686 5.43117 13.9955 5.70167 14.0852 7.36894C14.0852 7.37632 14.0852 7.3837 14.088 7.38862C14.0909 7.40583 14.2933 9.07802 13.374 9.95838C13.0097 10.3076 12.524 10.4797 11.8851 10.4846C11.8793 10.4846 11.8764 10.4846 11.8706 10.4846C11.8649 10.4846 11.862 10.4846 11.8562 10.4846C11.2202 10.4797 10.7316 10.3076 10.3702 9.95838C9.45375 9.08294 9.65034 7.40337 9.65323 7.38862Z" fill="#ADADAD"/>
<path d="M17.8117 14.1831C17.8117 14.1806 17.8117 14.1782 17.8117 14.1757C17.8117 14.1561 17.8088 14.1364 17.8088 14.1142C17.7915 13.6273 17.7539 12.4888 16.4992 12.1248C16.4905 12.1224 16.4789 12.1199 16.4703 12.1175C15.1664 11.8347 14.0823 11.1953 14.0707 11.1879C13.8944 11.0822 13.6515 11.1191 13.5272 11.2691C13.4029 11.4191 13.4463 11.6256 13.6226 11.7314C13.6718 11.7609 14.8224 12.4421 16.2621 12.7568C16.9357 12.9609 17.0109 13.5732 17.0311 14.1339C17.0311 14.1561 17.0311 14.1757 17.034 14.1954C17.0369 14.4167 17.0196 14.7585 16.9733 14.9553C16.505 15.1815 14.6692 15.9635 11.8764 15.9635C9.09528 15.9635 7.24792 15.179 6.77668 14.9528C6.73043 14.7561 6.71019 14.4143 6.71597 14.1929C6.71597 14.1733 6.71886 14.1536 6.71886 14.1315C6.7391 13.5708 6.81426 12.9585 7.48787 12.7544C8.9276 12.4396 10.0782 11.756 10.1274 11.7289C10.3037 11.6232 10.3471 11.4166 10.2228 11.2666C10.0985 11.1166 9.85561 11.0797 9.67926 11.1855C9.6677 11.1928 8.58935 11.8322 7.27972 12.115C7.26815 12.1175 7.25948 12.1199 7.25081 12.1224C5.99611 12.4888 5.95852 13.6273 5.94118 14.1118C5.94118 14.1339 5.94118 14.1536 5.93829 14.1733C5.93829 14.1757 5.93829 14.1782 5.93829 14.1806C5.9354 14.3085 5.9325 14.9651 6.08573 15.2946C6.11464 15.3586 6.16668 15.4127 6.23606 15.4495C6.32279 15.4987 8.40143 16.625 11.8793 16.625C15.3572 16.625 17.4359 15.4963 17.5226 15.4495C17.5891 15.4127 17.644 15.3586 17.6729 15.2946C17.8175 14.9676 17.8146 14.311 17.8117 14.1831Z" fill="#ADADAD"/>
</svg>
