<svg width="20" height="20" viewBox="0 0 20 20" fill="none" xmlns="http://www.w3.org/2000/svg">
<path d="M10.0019 0C5.81796 0.00428908 2.42793 3.39608 2.42578 7.57998C2.42578 11.6507 9.41309 19.5387 9.70943 19.8702C9.85306 20.0306 10.0996 20.0442 10.26 19.9006C10.2707 19.891 10.2808 19.8809 10.2905 19.8702C10.5868 19.5348 17.5741 11.6507 17.5741 7.57998C17.5719 3.39759 14.1842 0.00643363 10.0019 0ZM10.0019 19.0162C8.66835 17.4566 3.20561 10.9099 3.20561 7.57608C3.20561 3.8226 6.24838 0.779833 10.0019 0.779833C13.7553 0.779833 16.7981 3.8226 16.7981 7.57608C16.7981 10.9099 11.3354 17.4644 10.0019 19.0162Z" fill="#4D4D4D"/>
<path d="M10.1383 3.8017C7.87074 3.80384 6.03423 5.64386 6.03638 7.91142C6.03852 10.179 7.87854 12.0155 10.1461 12.0133C12.4121 12.0112 14.248 10.1736 14.248 7.90752C14.2437 5.6402 12.4056 3.80384 10.1383 3.8017ZM10.1383 11.2374C8.3014 11.2374 6.81231 9.74832 6.81231 7.91142C6.81231 6.07452 8.3014 4.58543 10.1383 4.58543C11.9752 4.58543 13.4643 6.07452 13.4643 7.91142C13.4621 9.74744 11.9743 11.2353 10.1383 11.2374Z" fill="#4D4D4D"/>
</svg>
