<svg width="16" height="16" viewBox="0 0 16 16" fill="none" xmlns="http://www.w3.org/2000/svg">
<path d="M15.7143 15.4667H14V0.266656C14 0.106656 13.8857 0 13.7143 0H2.28569C2.11427 0 1.99999 0.106656 1.99999 0.266656V15.4667H0.285704C0.114275 15.4667 0 15.5733 0 15.7333C0 15.8933 0.114275 16 0.285704 16H2.28569H3.42854H12.5714H13.7143H15.7143C15.8857 16 16 15.8933 16 15.7333C16 15.5733 15.8857 15.4667 15.7143 15.4667ZM3.71428 15.4667V1.6H12.2857V15.4667H3.71428ZM12.8572 15.4667V1.33334C12.8572 1.17334 12.7429 1.06669 12.5715 1.06669H3.42858C3.25715 1.06669 3.14287 1.17334 3.14287 1.33334V15.4667H2.57143V0.533344H13.4286V15.4667H12.8572V15.4667Z" fill="#ADADAD"/>
<path d="M11.4283 7.73334H10.2854C10.114 7.73334 9.99972 7.84 9.99972 8V8.26666H9.42828C9.25685 8.26666 9.14258 8.37332 9.14258 8.53332C9.14258 8.69332 9.25685 8.79998 9.42828 8.79998H9.99972V9.06664C9.99972 9.22664 10.114 9.3333 10.2854 9.3333H11.4283C11.5997 9.3333 11.714 9.22664 11.714 9.06664V8C11.714 7.84 11.5997 7.73334 11.4283 7.73334ZM11.1426 8.80001H10.5711V8.26666H11.1426V8.80001Z" fill="#ADADAD"/>
</svg>
