<svg width="6" height="6" viewBox="0 0 6 6" fill="none" xmlns="http://www.w3.org/2000/svg">
<g clip-path="url(#clip0)">
<path d="M5.69288 2.37113L5.27174 2.29969C5.22788 2.15806 5.17147 2.02144 5.10254 1.89108L5.35071 1.5439C5.45599 1.396 5.4397 1.1942 5.3106 1.06636L4.93709 0.692846C4.8669 0.622656 4.77415 0.583801 4.67513 0.583801C4.59742 0.583801 4.52347 0.607616 4.4608 0.652738L4.11236 0.900908C3.977 0.829465 3.83536 0.770556 3.68872 0.726687L3.61853 0.310563C3.58845 0.131329 3.43428 0.000976562 3.25254 0.000976562H2.72486C2.54312 0.000976562 2.38896 0.131329 2.35887 0.310563L2.28618 0.736715C2.1458 0.780583 2.00918 0.838239 1.87883 0.908429L1.53415 0.660258C1.47148 0.615136 1.39627 0.591322 1.31856 0.591322C1.21955 0.591322 1.12554 0.630177 1.05661 0.700366L0.681842 1.07388C0.553997 1.20172 0.53645 1.40352 0.641734 1.55142L0.892411 1.90362C0.823475 2.03522 0.768326 2.17184 0.725711 2.31347L0.309587 2.38366C0.130352 2.41375 0 2.56791 0 2.74965V3.27733C0 3.45907 0.130352 3.61324 0.309587 3.64332L0.735738 3.71601C0.779607 3.85639 0.837262 3.99301 0.907452 4.12337L0.660535 4.46679C0.55525 4.61469 0.571544 4.81649 0.700643 4.94433L1.07415 5.31784C1.14434 5.38803 1.23709 5.42689 1.33611 5.42689C1.41382 5.42689 1.48777 5.40307 1.55044 5.35795L1.90264 5.10727C2.02923 5.1737 2.16209 5.2276 2.29871 5.27021L2.3689 5.69135C2.39898 5.87059 2.55315 6.00094 2.73489 6.00094H3.26382C3.44556 6.00094 3.59973 5.87059 3.62981 5.69135L3.70125 5.27021C3.84288 5.22635 3.9795 5.16994 4.10986 5.10101L4.45704 5.34918C4.51971 5.3943 4.59492 5.41811 4.67263 5.41811C4.77164 5.41811 4.86439 5.37926 4.93458 5.30907L5.30809 4.93556C5.43594 4.80771 5.45349 4.60592 5.3482 4.45802L5.10003 4.10958C5.16897 3.97797 5.22662 3.84135 5.26924 3.70097L5.69038 3.63078C5.86961 3.6007 5.99996 3.44654 5.99996 3.2648V2.73712C6.00247 2.55538 5.87212 2.40121 5.69288 2.37113ZM5.66405 3.2648C5.66405 3.28109 5.65277 3.29488 5.63648 3.29738L5.11006 3.38512C5.04363 3.3964 4.99099 3.44528 4.97469 3.50921C4.92706 3.69345 4.85437 3.87018 4.7566 4.03437C4.72276 4.09203 4.72527 4.16347 4.76412 4.21862L5.07371 4.6548C5.08248 4.66734 5.08123 4.68614 5.06995 4.69742L4.69644 5.07093C4.68767 5.0797 4.67889 5.08095 4.67263 5.08095C4.66511 5.08095 4.65884 5.07845 4.65382 5.07469L4.2189 4.7651C4.165 4.72624 4.09231 4.72374 4.03465 4.75758C3.87046 4.85534 3.69373 4.92804 3.50948 4.97567C3.44431 4.99196 3.39542 5.04586 3.3854 5.11103L3.29641 5.63746C3.2939 5.65375 3.28011 5.66503 3.26382 5.66503H2.73614C2.71985 5.66503 2.70606 5.65375 2.70356 5.63746L2.61582 5.11103C2.60454 5.0446 2.55566 4.99196 2.49173 4.97567C2.3125 4.92929 2.13953 4.85785 1.97784 4.7651C1.95152 4.75006 1.92144 4.74254 1.89261 4.74254C1.85877 4.74254 1.82368 4.75257 1.79485 4.77387L1.35616 5.08597C1.3499 5.08973 1.34363 5.09223 1.33736 5.09223C1.33235 5.09223 1.32232 5.09098 1.31355 5.08221L0.94004 4.7087C0.92876 4.69742 0.927506 4.67987 0.93628 4.66608L1.24461 4.23366C1.28347 4.17851 1.28597 4.10582 1.25213 4.04816C1.15437 3.88522 1.07917 3.70849 1.03154 3.52425C1.01399 3.46032 0.961348 3.41144 0.896172 3.40016L0.365989 3.30992C0.349695 3.30741 0.338414 3.29362 0.338414 3.27733V2.74965C0.338414 2.73336 0.349695 2.71957 0.365989 2.71707L0.888651 2.62933C0.955081 2.61805 1.00898 2.56917 1.02527 2.50399C1.07165 2.31974 1.14309 2.14176 1.2396 1.97757C1.27344 1.91991 1.26968 1.84847 1.23083 1.79457L0.918733 1.35589C0.909959 1.34335 0.911212 1.32455 0.922493 1.31327L1.296 0.939763C1.30478 0.93099 1.31355 0.929736 1.31982 0.929736C1.32734 0.929736 1.3336 0.932243 1.33862 0.936003L1.77104 1.24434C1.82618 1.28319 1.89888 1.2857 1.95654 1.25186C2.11948 1.15409 2.2962 1.07889 2.48045 1.03126C2.54438 1.01371 2.59326 0.961071 2.60454 0.895895L2.69478 0.365712C2.69729 0.349418 2.71108 0.338138 2.72737 0.338138H3.25505C3.27134 0.338138 3.28513 0.349418 3.28763 0.365712L3.37537 0.888374C3.38665 0.954804 3.43553 1.0087 3.50071 1.02499C3.68997 1.07262 3.87046 1.14657 4.03841 1.24559C4.09607 1.27943 4.16751 1.27692 4.22266 1.23807L4.65508 0.927229C4.66135 0.923469 4.66761 0.920962 4.67388 0.920962C4.67889 0.920962 4.68892 0.922216 4.69769 0.930989L5.0712 1.3045C5.08248 1.31578 5.08374 1.33333 5.07496 1.34711L4.76538 1.78204C4.72652 1.83593 4.72401 1.90863 4.75786 1.96629C4.85562 2.13048 4.92832 2.30721 4.97595 2.49146C4.99224 2.55663 5.04613 2.60551 5.11131 2.61554L5.63773 2.70453C5.65403 2.70704 5.66531 2.72083 5.66531 2.73712V3.2648H5.66405Z" fill="#A8A8A8"/>
<path d="M3.00031 1.70459C2.28588 1.70459 1.70557 2.28491 1.70557 2.99934C1.70557 3.71377 2.28588 4.29409 3.00031 4.29409C3.71475 4.29409 4.29506 3.71377 4.29506 2.99934C4.29506 2.28491 3.71475 1.70459 3.00031 1.70459ZM3.00031 3.95567C2.47264 3.95567 2.04398 3.52701 2.04398 2.99934C2.04398 2.47166 2.47264 2.043 3.00031 2.043C3.52799 2.043 3.95665 2.47166 3.95665 2.99934C3.95665 3.52701 3.52799 3.95567 3.00031 3.95567Z" fill="#A8A8A8"/>
</g>
<defs>
<clipPath id="clip0">
<rect width="6" height="6" fill="white"/>
</clipPath>
</defs>
</svg>
