<svg width="23" height="23" viewBox="0 0 23 23" fill="none" xmlns="http://www.w3.org/2000/svg">
<g clip-path="url(#clip0)">
<path d="M23 4.36679C22.1537 4.74207 21.2444 4.99574 20.2899 5.1098C21.2641 4.52582 22.0123 3.6011 22.3647 2.49917C21.4528 3.03999 20.443 3.43265 19.3682 3.64423C18.5075 2.72715 17.281 2.15417 15.9238 2.15417C13.3179 2.15417 11.2052 4.2668 11.2052 6.8727C11.2052 7.24254 11.2469 7.60268 11.3273 7.94808C7.40568 7.75124 3.92869 5.8727 1.60139 3.01779C1.1952 3.71471 0.962464 4.52528 0.962464 5.39006C0.962464 7.02719 1.79549 8.47151 3.06166 9.3177C2.28815 9.29318 1.56055 9.08092 0.924416 8.72748C0.923966 8.74715 0.923967 8.76692 0.923967 8.78682C0.923967 11.0731 2.55054 12.9802 4.70912 13.4138C4.31322 13.5215 3.8963 13.5794 3.46595 13.5794C3.16188 13.5794 2.86629 13.5497 2.57812 13.4946C3.17863 15.3691 4.92124 16.7336 6.98611 16.7716C5.37117 18.0373 3.33653 18.7916 1.12571 18.7916C0.744819 18.7916 0.369228 18.7693 6.10352e-05 18.7255C2.08829 20.0645 4.56865 20.8456 7.2334 20.8456C15.9128 20.8456 20.6591 13.6554 20.6591 7.41981C20.6591 7.21523 20.6544 7.01174 20.6454 6.80932C21.5674 6.14407 22.3675 5.31302 23 4.36679Z" fill="white"/>
</g>
<defs>
<clipPath id="clip0">
<rect width="23" height="23" fill="white"/>
</clipPath>
</defs>
</svg>
