<svg width="30" height="30" viewBox="0 0 30 30" fill="none" xmlns="http://www.w3.org/2000/svg">
<path d="M14.9131 12.9672C17.2012 12.9672 19.056 11.1124 19.056 8.82437C19.056 6.53633 17.2012 4.68152 14.9131 4.68152C12.6251 4.68152 10.7703 6.53633 10.7703 8.82437C10.7703 11.1124 12.6251 12.9672 14.9131 12.9672ZM17.0721 10.275C16.8672 11.1375 15.9898 11.4613 14.9382 11.4613C13.8867 11.4613 13.0092 11.1375 12.8044 10.275H17.0721ZM21.9718 17.2529V18.6185C21.9718 18.821 21.7841 19.0562 21.5991 19.1384C20.8825 19.4573 18.9083 20.11 14.9137 20.11C10.9101 20.11 9.01294 19.4543 8.30005 19.1362C8.13343 19.0619 8.02819 18.894 8.02819 18.7115V17.2529C8.02819 15.1789 9.55971 13.4632 11.5879 13.2731C12.5209 13.9745 13.6575 14.3957 14.9111 14.3957C16.1678 14.3957 17.3158 13.9724 18.2497 13.2678C20.3031 13.4289 21.9718 15.1582 21.9718 17.2529ZM30 13.5503V14.3585C30 14.4782 29.859 14.6175 29.7496 14.6662C29.3254 14.855 28.1421 15.2412 25.778 15.2412C23.4138 15.2412 22.214 14.855 21.7899 14.6662C21.6804 14.6175 21.5494 14.4783 21.5494 14.3585V13.5503C21.5494 12.3123 22.5439 11.2899 23.7565 11.1922C24.3081 11.609 25.0006 11.8594 25.7442 11.8594C26.4893 11.8594 27.1791 11.608 27.7316 11.1895C28.9589 11.2695 30 12.2999 30 13.5503ZM8.11779 14.6662C7.69363 14.855 6.46902 15.2413 4.1049 15.2413C1.77574 15.2413 0.636765 14.8663 0.19799 14.6747C0.0882353 14.6268 0 14.4863 0 14.3666V13.5503C0 12.3249 0.889902 11.3108 2.0877 11.1955C2.64 11.6103 3.30887 11.8593 4.05049 11.8593C4.79779 11.8593 5.47828 11.6065 6.03245 11.1859C7.28221 11.2288 8.45074 12.2752 8.45074 13.5503V14.3585C8.45074 14.4783 8.22721 14.6176 8.11779 14.6662ZM4.05598 6.11005C2.70186 6.11005 1.60407 7.2078 1.60407 8.56197C1.60407 9.91609 2.70181 11.0139 4.05598 11.0139C5.41015 11.0139 6.50789 9.91613 6.50789 8.56197C6.50784 7.2078 5.41015 6.11005 4.05598 6.11005ZM4.05598 10.1665C3.42088 10.1665 2.89098 9.86246 2.76725 9.44996H5.34475C5.22103 9.86246 4.69108 10.1665 4.05598 10.1665ZM25.7702 6.11005C24.4161 6.11005 23.3183 7.2078 23.3183 8.56197C23.3183 9.91609 24.4161 11.0139 25.7702 11.0139C27.1244 11.0139 28.2222 9.91613 28.2222 8.56197C28.2222 7.2078 27.1244 6.11005 25.7702 6.11005ZM25.7702 10.1665C25.1351 10.1665 24.6052 9.86246 24.4815 9.44996H27.059C26.9352 9.86246 26.4053 10.1665 25.7702 10.1665Z" fill="#424242"/>
<path d="M23.4834 25.0674L29.089 20.3957C29.2675 20.2468 29.2919 19.979 29.1431 19.8005L28.6022 19.1515C28.4534 18.973 28.1856 18.9487 28.0071 19.0974L23.291 23.0276L21.3182 21.0552C21.1539 20.8909 20.885 20.8909 20.7207 21.0552L20.1232 21.6527C19.9589 21.817 19.9589 22.0859 20.1232 22.2502L22.9142 25.0415C23.0642 25.1916 23.3203 25.2032 23.4834 25.0674Z" fill="#C50143"/>
</svg>
